<?xml version="1.0" encoding="utf-8"?>
<!DOCTYPE svg PUBLIC "-//W3C//DTD SVG 1.1//EN" "http://www.w3.org/Graphics/SVG/1.1/DTD/svg11.dtd">
<svg version="1.1" id="Layer_1" xmlns="http://www.w3.org/2000/svg" xmlns:xlink="http://www.w3.org/1999/xlink" x="0px" y="0px"
	 viewBox="0 0 1915 1920" enable-background="new 0 0 1915 1920" xml:space="preserve">
<g id="_x23_f9fbf8ff">
</g>
<g id="_x23_020202ff">
	<path fill="#020202" stroke="#020202" stroke-width="0.0938" d="M282.33,9.5c5.57-3.95,12.07-6.41,18.7-7.87
		c5.93-0.32,11.9-0.35,17.84-0.06c11.64,1.97,22.22,8.99,28.82,18.75c7.96,11.43,11.23,25.79,9.84,39.59
		c-1,11.6-4.72,22.76-9.13,33.47c-0.97,1.54,0.05,3.13,0.44,4.66c3.39-1.85,5.88-4.82,8.64-7.45c8.77-7.92,18.57-15.39,30.29-18.18
		c11.08-2.6,23.99-0.84,32.31,7.52c10.49,10.3,13.17,25.94,12.35,40.07c-1.42,22.21-10.16,43.23-20.94,62.45
		c-11.59,20.38-25.76,39.22-41.34,56.7c-1.87,2.34-5.69,4.7-8.25,1.96c-1.92-3.43,1.73-6.5,2.97-9.48
		c7.53-14.6,13.16-30.99,11.72-47.63c-0.57-4.94-2.08-10.24-6.04-13.54c-7.62-6.05-18.7-2.19-24.28,4.82
		c-6.78,7.44-11.34,16.56-17.65,24.34c-1.19,1.72-3.26,1.18-4.98,0.92c-0.64-3.38,0.01-6.78,1.21-9.95
		c5.05-14.71,8.96-29.98,9.4-45.58c-0.65-7.8-1.35-15.95-5.42-22.85c-8.36-14.75-33.99-13.92-40.88,1.8
		c-5.31,11.63-4.49,24.98-2.47,37.3c1.69,9.75,4.61,19.22,7.67,28.62c0.96,3.23,2.22,6.81,0.84,10.12c-1.54,1.82-4,0.95-5.24-0.73
		c-6.88-8.82-11.81-19.25-20.2-26.83c-4.71-4.39-11.97-6.48-18.03-3.78c-5.17,2.16-7.9,7.67-8.85,12.91
		c-1.3,8.02-0.32,16.24,1.73,24.05c2.64,10.17,6.72,19.96,12.01,29.04c1.34,2.13,2.06,5.94-0.72,7.26
		c-2.86,1.48-5.67-1.13-7.45-3.15c-20.37-23.13-38.81-48.44-51.17-76.81c-6.9-16.04-11.52-33.45-10.56-51.03
		c0.82-12.53,5.79-25.55,16.22-33.15c11.81-8.58,28.34-8.19,40.89-1.42c10.14,5.51,18.69,13.47,26.57,21.79
		c0.32-0.52,0.95-1.57,1.27-2.09c-5.58-13.34-10.6-27.43-10.19-42.09C259.89,36.78,268.27,19.49,282.33,9.5z"/>
	<path fill="#020202" stroke="#020202" stroke-width="0.0938" d="M915.48,13.53c14.73-12.93,37.73-15.55,54.79-5.77
		c13.27,7.72,21.47,22.27,23.85,37.17c2.34,15.11-1.23,30.44-6.74,44.48c-1.11,3.1-3.39,6.32-1.54,9.64
		c2.96-1.63,5.27-4.11,7.6299-6.48c9.79-9.1,21.07-17.62,34.5701-19.93c6.01-0.2,12.2899-0.87,18,1.49
		c9.1,2.93,15.9099,10.63,19.45,19.31c5.03,12.3,4.85,26.07,2.63,38.98c-4.33,23.86-15.64,45.79-28.72,65.97
		c-8.64,13.13-18.19,25.66-28.5,37.53c-2.5,2.57-4.48,6.05-8.04,7.27c-1.76,0.71-3.23-0.86-4.63-1.61c0.06-4.42,3.38-7.72,5.04-11.6
		c6.65-13.98,11.86-29.39,10.35-45.08c-0.57-5.15-2.29-10.7-6.6-13.94c-5.86-4.08-14.24-2.98-19.58,1.48
		c-9.34,7.62-14.29,19.01-21.79,28.18c-1.03,1.38-2.85,1.13-4.33,1.31c-1.53-2.78-0.91-5.95,0.11-8.77c4.34-13.38,8.6-27,9.44-41.13
		c0.98-5.2-0.04-10.45-0.57-15.63c-1.27-7.75-4.25-16.12-11.31-20.39c-7.2-4.18-16.48-4.34-24.07-1.12
		c-7.91,3.51-11.83,12.14-13.08,20.26c-2.77,18.37,2.15,36.73,7.83,54.07c1.06,3.78,2.92,7.91,1.34,11.81
		c-1.46,1.65-4.1,0.8-5.22-0.79c-6.72-8.66-11.63-18.79-19.69-26.37c-4.58-4.46-11.56-6.82-17.75-4.6
		c-5.52,1.98-8.6,7.66-9.62,13.14c-1.15,6.87-0.61,13.93,0.89,20.7c2.48,11.44,6.97,22.41,12.83,32.53
		c1.32,2.19,2.05,5.92-0.75,7.31c-2.62,1.31-5.27-0.85-6.94-2.71c-14.79-16.56-28.26-34.36-39.55-53.5
		c-9.44-16.28-17.48-33.69-21.05-52.27c-2.56-13.75-2.94-28.61,3.13-41.53c3.89-8.67,11.34-15.74,20.42-18.73
		c5.74-2.4,12.08-1.8,18.15-1.58c16.44,2.77,28.99,14.86,40.23,26.27c0.39-0.42,1.17-1.24,1.55-1.66
		c-5.67-13.36-10.72-27.52-10.35-42.25C896.95,39.43,903.76,23.81,915.48,13.53z"/>
	<path fill="#020202" stroke="#020202" stroke-width="0.0938" d="M1539.0601,29.88c6.9099-14.54,21.1699-25.69,37.35-27.41
		c10.1-1.77,20.9,0.22,29.87,5.25c14.77,8.6,23.28,25.47,24.47,42.19c1.12,15.4-3.4301,30.5-9.29,44.55
		c-0.95,1.45-0.08,2.95,0.48,4.36c3.3601-1.29,5.42-4.43,8.0601-6.72c7.98-7.16,16.5699-14.15,26.91-17.57
		c6.2899-2.53,13.1599-2.27,19.8099-1.89c6.79,1.25,13.3201,4.51,17.9,9.75c7.3101,7.98,10.3199,18.96,10.9401,29.56
		c0.9199,19.59-5.03,38.82-13.1901,56.41c-12.34,26.16-29.63,49.69-48.7,71.32c-1.87,2.22-5.2301,5.08-8.11,2.83
		c-1.8-1.27-1.28-3.75-0.2001-5.3c6.71-11.05,11.23-23.36,13.74-36.01c0.53-5.04,1.72-10.13,0.75-15.19
		c-0.64-5.73-2.24-12.18-7.41-15.5c-6.1-3.7-14.3199-2.23-19.5099,2.4c-8.9901,7.66-13.87,18.76-21.25,27.74
		c-1.3401,1.77-4.7301,1.85-5.17-0.7c-0.48-4.5,1.85-8.62,2.9399-12.87c5.2001-16.81,9.9501-34.68,6.62-52.34
		c-1.4399-7.68-4.96-15.87-12.36-19.49c-7.47-3.56-16.75-3.49-24.1,0.35c-7.4399,4.07-10.76,12.67-11.88,20.65
		c-2.48,18.56,2.75,36.95,8.48,54.42c0.92,3.3,2.37,7.02,0.8,10.35c-1.46,1.71-4.09,0.78-5.1901-0.82
		c-5.6799-7.39-10.13-15.7-16.21-22.8c-3.22-3.61-6.99-7.12-11.79-8.38c-5.61-1.65-12.37,0.1-15.6799,5.13
		c-4.4501,6.59-4.33,15.01-3.5601,22.62c1.9401,13.66,6.9701,26.79,13.87,38.71c1.2001,1.85,1.2201,4.08,1.17,6.21
		c-2.5699,2.48-6.27,1.67-8.33-0.99c-14.5601-16.1-27.7101-33.51-38.91-52.1c-9.6801-16.39-17.99-33.88-21.84-52.62
		c-1.9701-10.11-2.99-20.63-1.02-30.82c1.85-10.83,7.47-21.53,16.96-27.5c11.51-7.28,26.8-6.85,38.67-0.62
		c9.51,4.95,17.53,12.25,25,19.84c0.7899,1.47,2.35,0.86,3.6899,0.64c-3.99-9.38-7.6799-19-9.39-29.09
		C1532.08,55.52,1533.0601,41.71,1539.0601,29.88z"/>
	<path fill="#020202" stroke="#020202" stroke-width="0.0938" d="M76.72,81.11c5.84-2.17,12.22,0.52,15.95,5.22
		c29.17,31.53,57.99,63.4,86.37,95.65c2.13,2.25,4.41,5.48,2.7,8.64c-1.48,3.7-6.58,4.56-9.58,2.16
		c-36.25-24.35-72.49-48.73-108.58-73.34c-4.08-2.62-7.95-6.38-8.61-11.42c-1.13-5.26,1.64-10.32,4.87-14.26
		C64.21,88.17,70.06,83.62,76.72,81.11z"/>
	<path fill="#020202" stroke="#020202" stroke-width="0.0938" d="M535.1,80.59c3.47-0.37,7.03-0.5,10.5-0.02
		c6.37,2.7,11.58,7.61,15.89,12.92c3.29,4.32,5.48,10.19,3.44,15.52c-2.32,5.39-7.58,8.53-12.22,11.69
		c-33.18,22.53-66.36,45.03-99.66,67.37c-2.71,1.71-5.18,3.93-8.23,5.02c-3.66,1.2-8.12-2.18-7.44-6.1c1.78-3.85,5.35-6.4,7.85-9.74
		c22.16-25.12,44.78-49.83,67.21-74.71c6.32-6.42,11.85-13.62,18.65-19.57C532.31,82,533.64,81.17,535.1,80.59z"/>
	<path fill="#020202" stroke="#020202" stroke-width="0.0938" d="M713.58,82.19c5.34-2.04,11.42-0.19,15.13,4.07
		c25.6,27.43,50.61,55.4,75.66,83.35c4.6,5.4,9.57,10.5,13.91,16.12c2.25,2.94,0.78,7.72-2.7,8.94c-2.89,1.4-5.85-0.45-8.18-2.06
		c-35.79-24.22-71.73-48.21-107.38-72.63c-4.2-2.68-7.77-6.85-8.17-11.99c-0.67-6.21,3.37-11.5,7.22-15.91
		C703.16,87.87,708,84.17,713.58,82.19z"/>
	<path fill="#020202" stroke="#020202" stroke-width="0.0938" d="M1349.65,82.19c5.2999-2.02,11.4399-0.24,15.11,4.03
		c25.4299,27.27,50.29,55.06,75.1799,82.83c4.77,5.56,9.91,10.84,14.38,16.66c2.28,2.96,0.8201,7.79-2.73,8.96
		c-2.38,1.16-4.96,0.04-6.96-1.31c-34.4301-23.23-68.9301-46.35-103.24-69.75c-4.9301-3.49-11.13-6.59-12.92-12.86
		c-0.51-3.95-0.7999-8.44,1.5901-11.89C1334.5601,91.4,1341.47,85.3,1349.65,82.19z"/>
	<path fill="#020202" stroke="#020202" stroke-width="0.0938" d="M1172.09,81.58c3.48-0.37,7.04-0.51,10.53-0.01
		c4.9401,1.85,8.95,5.49,12.6801,9.13c4.1899,4.29,7.9399,9.9,7.3999,16.17c-0.48,5.3-4.7699,9.12-8.85,12.01
		c-34.34,23.35-68.73,46.62-103.1899,69.79c-2.89,1.84-5.55,4.15-8.78,5.36c-3.67,1.25-8.1-2.12-7.51-6.04
		c0.75-1.65,1.92-3.06,3.13-4.41c27.7-31.27,55.73-62.25,83.9301-93.07C1164.74,87.29,1167.6801,83.37,1172.09,81.58z"/>
	<path fill="#020202" stroke="#020202" stroke-width="0.0938" d="M1808.09,81.62c3.7001-0.37,7.6-0.73,11.26,0.15
		c6.04,2.83,11.12,7.48,15.24,12.66c3.4601,4.48,5.6801,10.87,3.11,16.28c-2.99,5.9-9.1799,8.94-14.34,12.62
		c-34.34,23.33-68.7,46.64-103.21,69.72c-3.78,3.07-10.4401-0.06-9.73-5.07c1-2.02,2.51-3.74,4.0399-5.39
		c27.54-31.11,55.42-61.91,83.48-92.55C1801.0601,86.96,1803.9,83.32,1808.09,81.62z"/>
	<path fill="#020202" stroke="#020202" stroke-width="0.0938" d="M74.06,208.27c9.65-6.42,21.58-8.54,32.96-8.4
		c18.85,0.9,37.09,6.92,53.89,15.28c24.28,12.15,46.37,28.33,66.68,46.26c2.25,1.8,4.55,4.98,2.64,7.84
		c-2.06,2.07-5.07,1.12-7.26-0.15c-13.46-7.6-28.39-13.22-43.93-14.14c-6.36-0.12-13.35,0.44-18.52,4.56
		c-5.99,5.16-5.67,14.98-1.04,20.94c7.42,9.9,19.12,15,28.64,22.48c1.37,1.02,2.03,2.73,1.11,4.3c-2.8,2.23-6.56,0.84-9.65,0.08
		c-15.73-5-31.9-10.01-48.6-9.46c-8.74,0.38-18.3,1.93-24.77,8.35c-6.29,6.31-7.16,16.23-4.97,24.49
		c2.28,8.16,9.86,13.69,17.79,15.72c17.31,4.9,35.41,0.3,52.15-4.66c6.11-1.54,12.04-4.79,18.51-4.06c-0.27,1.57,0.02,3.5-1.37,4.63
		c-9.94,8.33-23.2,13.31-30.22,24.75c-3.28,5.77-2.77,13.94,2.41,18.47c6.04,5.42,14.72,6.5,22.52,5.77
		c13.29-1.75,26.19-6.14,37.91-12.61c2.92-1.66,6.12-2.76,9.4-3.41c0.82,2.87,0.63,6.09-1.94,8.02
		c-22.31,19.78-46.68,37.67-73.85,50.2c-17.69,7.99-37.02,13.81-56.62,12.41c-12.39-0.83-25.36-5.62-32.86-15.99
		c-6.9-9.3-7.27-22.07-3.6-32.72c4.85-13.24,15.08-23.36,24.51-33.43c-0.51-0.64-1.54-1.92-2.05-2.56
		c-13.26,5.7-27.36,10.25-41.93,10.34c-15.6,0.04-31.55-6.09-42-17.89v-61.5c3.42-2.56,6.51-5.54,10.09-7.88
		c8.58-5.64,18.66-8.72,28.83-9.71c15.75-0.85,31.1,4.03,45.43,10.07c0.4-0.36,1.18-1.09,1.57-1.45
		c-8.09-9.35-17.49-17.95-22.75-29.37c-3.76-7.53-4.6-16.17-3.49-24.42C61.41,220.84,66.66,212.97,74.06,208.27z"/>
	<path fill="#020202" stroke="#020202" stroke-width="0.0938" d="M1143.75,200.56c4.1,0.28,8.15-1.29,12.2-0.28
		c9.6901,0.05,19.5701,2.57,27.55,8.22c6.9,4.84,11.4399,12.67,12.77,20.94c1.3099,8.94-0.41,18.24-4.63,26.21
		c-5.01,9.58-12.5,17.53-19.98,25.21c-1.88,0.96-1.17,2.75,0.21,3.8c2.29,0.16,4.34-0.99,6.42-1.8
		c10.6699-4.57,22.11-7.23,33.6499-8.3c15.92-0.45,32.5701,5.05,43.51,16.98c4.16,4.5,6.9401,10.02,9.4301,15.56
		c6.4-16.01,22-26.74,38.51-30.17c13.96-3.37,28.49-0.39,41.89,3.95c4.5699,1.25,8.62,4.03,13.2999,4.83
		c-0.0199-0.59-0.0499-1.77-0.0699-2.36c-5.83-6.46-12.2-12.52-17.09-19.76c-5.4601-7.76-9.4501-16.99-9.0801-26.63
		c-0.5-10.78,5.37-21.28,14.1901-27.3c9.4199-6.7,21.25-8.53,32.52-9c4.6599,1.06,9.5,0.47,14.1499,1.6
		c21.78,3.68,41.9801,13.44,60.66,24.92c16.8,10.43,32.5701,22.5,47.3201,35.65c2.0599,1.7,4.1699,4.95,2.0699,7.42
		c-2.03,2.11-5.15,1.06-7.3-0.21c-9.0299-5.28-18.8199-9.25-28.95-11.85c-8.52-2-17.51-3.32-26.14-1.21c-3.97,1.01-8,3.11-10,6.85
		c-3.03,5.77-1.99,13.19,2.13,18.17c7.53,9.44,18.8,14.59,28.1801,21.87c1.35,0.89,2.1899,2.93,1.0699,4.32
		c-2.72,2.26-6.4299,0.89-9.4399,0.14c-12.15-3.89-24.4401-7.7-37.17-9.05c-9.28-0.97-18.96-0.76-27.8,2.49
		c-6.49,2.33-11.97,7.68-13.6499,14.48c-2.02,8.23-0.92,18,5.38,24.19c5.87,5.95,14.4199,7.74,22.3799,8.92
		c17.05,1.07,33.7101-3.79,49.79-8.91c3.36-0.99,6.86-2.73,10.4401-1.61c1.49,2-0.11,4.28-1.8401,5.47
		c-7.6899,5.69-16.21,10.25-23.36,16.65c-4.24,3.86-7.95,9.07-7.83,15.04c-0.22,5.14,2.78,10.07,7.1899,12.61
		c6.65,3.92,14.8101,4.66,22.29,3.26c11.91-1.78,23.4401-5.83,34.09-11.42c3.4301-1.69,6.77-4.59,10.86-3.81
		c0.79,2.81,0.3101,5.94-2.1499,7.75c-26.75,23.52-56.39,44.92-90.3301,56.66c-11.61,3.87-23.8099,6.29-36.08,6.08
		c-9.85-0.25-19.9301-2.42-28.21-7.96c-7.6101-5.02-13.15-13.3-14.24-22.41c-0.55-5.96-0.3101-12.09,1.74-17.77
		c4-11.69,12.3999-21.11,20.7699-29.92c1.7301-1.83,5.54-4.48,2.13-6.76c-10.51,4.05-21.1399,8.18-32.4099,9.54
		c-16.48,2.51-34.24-1.65-47.02-12.6c-6.09-5.08-10.53-11.86-13.49-19.18c-6.4301,16.76-22.9501,27.88-40.26,30.75
		c-17.23,2.94-34.6-2.08-50.4-8.67c-1.35-0.99-2.61,0.02-3.8099,0.65c7.83,8.05,15.85,16.19,21.2799,26.14
		c4.0901,7.27,6.0801,15.71,5.52,24.05c-0.5,9.57-5.51,18.74-13.26,24.36c-9.52,7.02-21.74,9.16-33.34,8.93
		c-18.9301-0.58-37.23-6.79-54.08-15.12c-21.88-10.73-41.8601-24.97-60.4701-40.61c-3.1799-2.83-6.6699-5.34-9.47-8.55
		c-1.51-1.37-0.6-3.43-0.54-5.15c2.3201-0.71,4.8401-2.04,7.0701-0.27c11.09,6.42,23.1799,11.1,35.73,13.75
		c5.58,0.59,11.2,0.52,16.8101,0.34c5.85,0.14,11.72-3.59,14-9c1.6-5.89,0.5499-12.56-3.38-17.35
		c-7.62-9.33-19.01-14.29-28.2201-21.75c-1.25-0.83-1.1-2.37-1.2999-3.65c2.73-0.42,5.5-2.02,8.25-0.78
		c18.0299,5.48,36.5499,11.9,55.6699,10.06c7.4301-0.77,15.4301-2.8,20.52-8.71c5.53-6.25,5.79-15.38,4.26-23.16
		c-1.49-6.88-6.63-12.54-13.13-15.08c-9.89-3.94-20.89-3.87-31.29-2.47c-11.6899,1.52-23,4.99-34.1799,8.6
		c-3.5601,1.17-8.16,2.32-10.78-1.22c9.51-8.53,21.98-13.44,30.3301-23.3c6.1399-7.14,5.5699-20.61-3.51-25.09
		c-8.5601-3.99-18.4501-2.89-27.4301-1.14c-10.91,2.38-21.47,6.49-31.15,12.05c-2.58,1.67-6.6899,3.21-8.7999,0.01
		c-0.5901-2.87,2.1899-4.83,3.99-6.63c17.38-15.28,35.99-29.29,56.1799-40.67C1103.21,211.14,1122.95,203,1143.75,200.56z"/>
	<path fill="#020202" stroke="#020202" stroke-width="0.0938" d="M490.26,202.75c8.43-2.02,17.01-3.83,25.74-3.32
		c10.42-0.59,21.21,1.78,29.91,7.7c6.96,4.71,11.73,12.37,13.1801,20.62c1.65,9.62-0.36,19.72-5.16,28.19
		c-5.37,9.88-13.51,17.76-21.04,25.96c1.34,1.1,3,2.38,4.8,1.39c12.13-5.27,25.06-8.86,38.28-9.75c14.88-0.08,30.27,4.84,40.98,15.5
		c5.21,5.35,9.3,11.92,11.12,19.2c1.86-3.26,3.32-6.75,5.45-9.86c8.02-11.48,20.94-18.91,34.54-21.61
		c14.57-3.26,29.63,0.14,43.46,4.94c3.76,1.11,7.1,3.55,11.04,3.98c-0.02-0.59-0.07-1.76-0.1-2.34
		c-9.43-10.08-19.79-20.19-24.29-33.61c-3.09-10.04-2.89-21.76,3.12-30.71c5.39-8.39,14.63-13.59,24.09-16.07
		c5.44-1.43,11.08-1.84,16.65-2.33c6.1299,0.93,12.39,0.77,18.46,2.24c20.29,4.07,39.17,13.23,56.73,23.94
		c17.19,10.69,33.39,22.97,48.41,36.53c1.96,1.58,3.18,4.64,1.59,6.88c-1.7599,1.87-4.59,1.35-6.58,0.2
		c-13.95-7.94-29.48-13.81-45.64-14.54c-6.24,0.07-13.18,0.72-18,5.1c-5.59,5.54-4.94,15.25-0.07,21.05
		c7.55,9.44,18.82,14.59,28.23,21.85c1.26,0.93,2.2,2.88,1.04,4.28c-2.66,2.29-6.42,0.92-9.42,0.18
		c-17.92-5.69-36.6801-11.51-55.7-8.91c-8.06,1.08-16.75,4.35-20.91,11.81c-3.9,7.3-4,16.6-0.44,24.04
		c3.96,7.89,12.68,11.78,20.99,13.18c9.01,2.01,18.3101,0.85,27.29-0.65c11.06-1.9,21.69-5.58,32.4-8.86
		c1.83-0.62,3.86-0.62,5.73-0.11c1.16,1.74,0.27,3.83-1.29,4.97c-7.94,6.14-17.06,10.73-24.42,17.61
		c-4.29,3.97-7.87,9.47-7.31,15.56c0.02,6.04,4.68,11.06,10.08,13.16c6.39,2.55,13.52,3.02,20.24,1.59
		c13.06-2.06,25.66-6.82,37.08-13.46c1.97-1.05,4.13-2.38,6.46-1.59c2,2.44,0.61,5.9-1.6,7.68c-13.53,12-27.79,23.22-42.98,33.05
		c-18.05,11.61-37.44,21.67-58.39,26.8c-13.34,3.12-27.55,4.39-40.89,0.61c-9.58-2.67-18.66-8.63-23.31-17.64
		c-3.9-6.87-4.05-15.11-3.02-22.74c2.5-13.22,11.47-23.82,20.32-33.43c1.91-2.27,4.94-3.98,5.62-7.03
		c-0.41-0.41-1.21-1.23-1.61-1.64c-12.27,4.78-24.88,9.39-38.17,10.09c-17.01,1.11-34.91-5.12-46.24-18.14
		c-4.12-4.67-7.06-10.26-9.06-16.13c-5.51,15.06-19.1,26.03-34.35,30.24c-17.63,5.17-36.37,0.93-53-5.72c-2.47-0.83-5.12-3-7.54-0.9
		c9,9.3,18.4,18.81,23.57,30.9c4.4,10.62,4.85,23.48-1.03,33.64c-4.83,8.6-13.73,14.25-23.1,16.77
		c-12.95,3.56-26.69,2.46-39.64-0.49c-18.7-4.32-36.1-12.9-52.48-22.71c-17.88-10.94-34.61-23.75-50.17-37.79
		c-2.6-1.77-1.7-4.8-1.05-7.33c2.51-0.24,5.15-0.31,7.33,1.19c10.85,6.26,22.69,10.77,34.94,13.38c6.56,0.64,13.18,0.59,19.76,0.14
		c4.75-1.03,9.25-4.23,11.18-8.8c1.83-6.63,0.03-14-4.77-18.96c-7.58-8.07-17.72-12.97-26.38-19.69c-1.02-0.92-2.4-2.11-1.56-3.61
		c2.49-1.99,5.71-2.24,8.62-1.03c18.62,5.65,37.86,12.22,57.58,9.63c7.29-1.25,15.11-3.82,19.42-10.29
		c4.57-7.46,4.72-17.21,1.52-25.21c-2.79-7.04-9.84-11.26-16.93-12.95c-14.03-3.36-28.65-0.99-42.42,2.48
		c-7.18,1.75-14.11,4.41-21.27,6.22c-2.68,0.76-5.78,0.33-7.4-2.14c8.75-7.66,19.58-12.58,28-20.65c3.49-3.59,6.54-8.24,6.21-13.46
		c0.45-5.19-1.64-10.77-6.23-13.54c-6.13-3.69-13.65-3.61-20.55-3.11c-14.35,1.61-28.08,6.92-40.56,14.03
		c-2.01,1.17-5.1,2.04-6.85-0.01c-2.05-1.94,0.47-4.52,1.96-5.94c15.92-14.08,32.8-27.16,51.02-38.14
		C456.77,215.17,472.97,207.28,490.26,202.75z"/>
	<path fill="#020202" stroke="#020202" stroke-width="0.0938" d="M1756.25,205.82c10.89-3.49,22.26-5.95,33.76-5.4
		c10.11-0.56,20.5,1.95,28.9399,7.64c6.99,4.65,11.7301,12.32,13.2301,20.54c1.96,10.95-1.01,22.35-7.0601,31.56
		c-5.15,8.46-12.52,15.18-18.87,22.64c1.17,2.45,3.96,2.01,6.01,0.96c11.28-5.03,23.41-8.12,35.7-9.2
		c15.4601-0.47,31.5701,4.71,42.54,15.92c15.67,15.97,17.1899,43.7,3.17,61.18c-10.9801,13.9-29.3101,20.82-46.75,19.96
		c-13.63-0.48-26.61-5.14-39.15-10.12c-0.4,0.37-1.2001,1.12-1.6,1.5c7.7999,8.25,16.01,16.42,21.34,26.59
		c7.54,13.6,7.59,32.54-3.87,44.04c-7.67,7.97-18.8,11.53-29.59,12.42c-18.1101,1.35-36.0701-3.54-52.62-10.51
		c-29.03-12.65-54.9301-31.49-78.4601-52.46c-2.08-1.49-1.95-3.99-1.53-6.22c2.1101-0.41,4.38-2.09,6.4701-0.63
		c9.83,5.54,20.25,10.19,31.26,12.86c7.0599,2.23,14.5699,1.68,21.88,1.58c5.9099,0.22,11.6899-3.63,14.12-8.96
		c1.33-5.73,0.71-12.13-3.03-16.86c-5.98-7.86-15-12.49-22.9-18.13c-2.73-2.15-7.1899-3.63-7.09-7.76c2.7-0.46,5.4399-2.08,8.2-0.86
		c17.13,5.21,34.55,11.25,52.7101,10.39c8.8799-0.35,18.74-2.73,24.49-10.07c4.2-5.52,4.5199-12.79,3.88-19.43
		c-0.8-6.06-3.92-11.95-9.13-15.32c-7.4301-4.88-16.66-5.74-25.3201-5.79c-15.0499,0.47-29.64,4.6-43.85,9.26
		c-3.34,0.81-7.48,2.7-10.49,0.16c-1.22-0.78-0.15-2.38,0.76-2.9c8.3099-6.42,17.74-11.35,25.5499-18.44
		c4.04-3.86,7.3-9.14,6.8301-14.93c0.49-5.97-3.1801-11.88-8.8101-13.94c-8.0599-2.99-16.97-2.21-25.24-0.61
		c-11.49,2.34-22.52,6.76-32.6699,12.58c-2.02,1.08-4.63,2.31-6.77,0.92c-2.14-1.08-1.28-4.17,0.1799-5.47
		c15.01-13.64,31.14-26.1,48.3301-36.89C1725.11,218.77,1740.16,210.89,1756.25,205.82z"/>
	<path fill="#020202" stroke="#020202" stroke-width="0.0938" d="M304.59,278.49c9.84-1.79,20.29,0.83,28.63,6.3
		c17.36,11.21,24.34,35.47,15.89,54.27c-5.73,13.53-18.65,23.84-33.21,26.04c-9.04,1.36-18.53-0.03-26.65-4.27
		c-10.72-5.31-19.04-15.21-22.39-26.69c-3.02-10.85-1.71-22.89,3.86-32.71C277.62,289.07,290.52,280.23,304.59,278.49z"/>
	<path fill="#020202" stroke="#020202" stroke-width="0.0938" d="M941.58,279.48c5.46-1.36,11.03-0.42,16.43,0.78
		c14.6,3.68,26.24,15.97,30.09,30.4c2.75,10.13,2.05,21.29-2.59,30.77c-5.96,12.83-18.48,22.43-32.48,24.64
		c-9.8101,1.48-20.15-0.3-28.73-5.33c-13.62-7.66-22.85-23.03-21.92-38.79C902.65,300.67,920.64,281.86,941.58,279.48z"/>
	<path fill="#020202" stroke="#020202" stroke-width="0.0938" d="M1576.65,279.58c16.2999-3.28,33.95,5.14,42.41,19.37
		c8.7,13.84,9.0499,32.55,0.3799,46.49c-6.5299,10.8-17.8799,18.73-30.4099,20.62c-17.7001,3.01-36.53-6.2-45.1901-21.87
		c-7.74-13.25-7.14-30.65,1.03-43.56C1551.79,289.48,1563.65,281.56,1576.65,279.58z"/>
	<path fill="#020202" stroke="#020202" stroke-width="0.0938" d="M246.08,406.95c2.93-3,5.73-7.31,10.53-6.68
		c2.38,4.41-1.27,8.36-3.17,12.11c-5.27,10.35-9.32,21.45-10.99,32.99c-0.98,7.47-1.09,15.64,2.78,22.38
		c2.33,3.66,6.1,7.17,10.73,6.99c3.62-0.04,7.68,0.53,10.75-1.85c7.34-5.17,12.15-12.96,17.02-20.32
		c3.04-4.25,5.48-9.47,10.55-11.67c2.33,4.05,0.51,8.6-0.74,12.67c-4.69,14.35-8.82,29.19-8.74,44.42
		c0.23,8.02,1.3,16.49,5.94,23.28c3.08,4.58,8,7.81,13.33,9.13c4.26,0.39,8.55,0.34,12.82,0.1c8.64-1.58,14.59-9.45,16.25-17.74
		c4.04-17.57,0.07-35.78-5.13-52.68c-1.53-5.59-4.38-11.06-3.61-17.02c1.61-0.65,3.68-2.72,5.13-0.67c3,3.44,5.27,7.46,7.88,11.2
		c5.38,7.83,10.73,16.68,19.81,20.61c3.82,0.92,7.85,0.6,11.74,0.23c9.12-4.76,9.13-16.41,8.6-25.32
		c-1.57-14.9-7.07-29.24-14.54-42.15c-0.87-1.63-1.46-4.33,0.45-5.45c1.27-1.35,3.26-0.94,4.92-1.17
		c5.89,5.57,10.79,12.07,15.97,18.29c12.96,16.19,24.69,33.47,33.93,52.07c8.14,16.65,14.39,34.65,15.09,53.32
		c0.44,11.94-1.81,24.54-9.11,34.27c-4.55,6.2401-11.45,10.6-18.96,12.2401c-10.13,2.21-20.92,0.0699-29.87-5.01
		c-9.43-5.2-17.09-12.89-24.88-20.17c-1.69-0.8-2.39,1.1-1.67,2.39c6.79,16.02,11.97,33.69,8.88,51.21
		c-2.75,16.7-13.5,32.19-29.13,39.18c16.99,5.4,28.65,21.51,31.88,38.59c3.72,18.22-1.87,36.65-8.84,53.3701
		c0.29,0.77,0.86,2.3199,1.15,3.1c4.92-3.06,8.36-7.88,13-11.31c10.05-8.62,22.55-15.93,36.2-15.4c9.94-0.21,19.92,4.67,25.64,12.85
		c7.64,10.48,9.4,24.01,8.6,36.64c-1.39,19.39-8.41,37.89-17.29,55.01c-12.21,23.1-27.9,44.24-45.29,63.68
		c-1.83,2.26-5.5,4.16-7.89,1.55c-1.85-3.21,1.46-6.16,2.68-8.93c7.65-14.8,13.56-31.39,12-48.29c-0.7-5.51-2.64-11.75-7.83-14.6
		c-6.21-3.43-14.18-1.65-19.29,2.97c-8.47,7.48-13.39,17.91-20.24,26.73c-1.3,1.7-3.57,3.1299-5.37,1.22
		c-1.28-3.22,0.11-6.66,1.06-9.77c3.79-11.25,7-22.75,8.55-34.54c0.65-11.09,1.21-22.98-4.31-33.04
		c-7.76-15.09-33.28-14.9-40.79,0.32c-4.34,8.5-4.83,18.43-4.18,27.79c0.96,13.85,5.14,27.2,9.37,40.34
		c0.7,2.8701,2.01,6.47,0.02,9.08c-1.44,1.74-3.74,0.22-4.89-1.09c-5.63-7.4301-10.14-15.6801-16.18-22.81
		c-3.52-4.06-7.91-7.88-13.4-8.75c-5.61-1.11-11.91,1.35-14.71,6.46c-4.07,7.13-3.85,15.76-2.65,23.64
		c1.92,11.53,5.98,22.67,11.47,32.98c1.56,3.01,4.39,6.23,2.96,9.85c-2.2,3.33-6.63,1.19-8.51-1.33
		c-20.36-23.13-38.9-48.36-51.33-76.7c-7.59-17.46-12.58-36.63-10.43-55.77c1.56-11.59,6.96-23.34,17.05-29.86
		c10.67-7.09,24.8-7.29,36.33-2.17c11.71,5.25,21.14,14.31,30.02,23.36c0.27-0.57,0.81-1.71,1.08-2.28
		c-4.31-10.27-8.18-20.85-9.64-31.95c-0.97-10.72-0.78-21.92,3.78-31.87c4.96-11.92,14.25-22.23,26.3-27.21
		c-3.68-1.87-7.57-3.34-10.99-5.69c-11.7-7.76-19.32-20.8-21.8-34.48c-2.52-15.96,0.99-32.21,7.25-46.91
		c0.93-2.53,2.76-5.6299,0.69-8.08c-2.67,1.59-4.59,4.1-6.88,6.15c-8.14,7.5-16.94,14.87-27.64,18.34
		c-10.77,3.49-23.4,2.8-32.83-3.89c-9.08-6.4-14.06-17.21-15.61-27.97c-2.33-18.08,2.08-36.28,8.81-52.99
		C207.58,455.8,225.93,430.34,246.08,406.95z"/>
	<path fill="#020202" stroke="#020202" stroke-width="0.0938" d="M888.4,402.62c1.35-1.49,3.5-1.1,5.3-1.33
		c2.35,4.69-1.71,8.76-3.6,12.75c-5.97,12.16-10.61,25.3-11.19,38.94c-0.1,7.15,1.15,15.31,7.09,20.05
		c3.98,3.79,9.92,2.76,14.89,2.34c12.42-6.35,17.53-20.31,26.11-30.49c1.18-1.33,2.74-2.23,4.37-2.92
		c1.76,3.31,1.06,7.06-0.12,10.43c-4.81,14.77-9.32,29.93-9.43,45.6c0.17,7.64,0.96,15.61,4.79,22.39
		c3.64,6.5,10.74,11.39,18.34,11.25c4.78-0.08,9.99,0.74,14.19-2.1c7.4-3.5601,10.49-11.89,11.89-19.45
		c2.42-16.83-1.1-33.8-6.2401-49.81c-1.52-5.32-4.05-10.58-3.38-16.26c1.35-0.49,2.59-1.7,4.1-1.53c2.84,2.23,4.42,5.62,6.54,8.49
		c5.51,7.97,10.46,16.85,18.7,22.37c4.39,3.21,10.1,2.53,15.2,2.09c5.37-2.64,7.98-8.57,8.52-14.26
		c1.76-19.04-5.5699-37.56-14.7-53.88c-0.56-1.3-0.39-2.75-0.51-4.11c2.37-1.33,5.73-3.04,7.85-0.29
		c14.61,16.01,27.77,33.4,39.02,51.94c9.8099,16.51,18.16,34.17,22.17,53.06c2.5499,12.51,3.37,25.76-0.3601,38.14
		c-2.7599,9-8.35,17.54-16.7599,22.14c-10.8501,5.98-24.4601,5.21-35.4401-0.02c-10.92-5.08-19.48-13.75-28.16-21.84
		c-1.68-0.69-2.38,1.14-1.65,2.42c6.5,15.3,11.44,32,9.28,48.78c-2.22,17.58-13.08,34.27-29.51,41.57
		c15.77,5.06,27.06,19.4,31.05,35.13c4.97,18.55-0.11,38.0099-7.45,55.19c-1.2,1.56-0.03,3.15,0.55,4.7
		c3.59-2.0099,6.17-5.25,9.17-7.97c7.37-6.4,15.12-12.78,24.48-15.99c9.97-3.75,21.6801-4,31.1899,1.21
		c7.76,4.1801,12.9401,11.94,15.75,20.11c3.8101,11.22,3.5801,23.38,1.76,34.95c-2.8199,16.7401-9.2799,32.65-17.26,47.56
		c-10.59,19.65-23.7599,37.8101-38.1799,54.8101c-3.08,3.22-5.5,7.42-9.59,9.4399c-2.89,1.38-6.25-1.97-4.56-4.8199
		c3.73-6.53,7.32-13.19,9.69-20.36c4.09-11.24,6.75-23.34,4.89-35.31c-0.97-4.78-2.96-9.95-7.48-12.39
		c-6.26-3.39-14.22-1.63-19.35,3.02c-8.44,7.5-13.4,17.92-20.23,26.75c-1.29,1.68-3.57,3.07-5.32,1.18
		c-1.33-3.14,0.04-6.54,0.97-9.59c3.78-11.25,7.05-22.74,8.59-34.53c0.67-11.16,1.27-23.13-4.28-33.27
		c-7.7-14.8-32.57-14.9301-40.46-0.25c-3.64,6.47-4.54,14.05-4.78,21.35c-0.1,15.24,4.06,30.06,8.7,44.44
		c1.05,3.65,2.79,7.53,1.52,11.36c-1.39,2.38-4.07,1.34-5.45-0.43c-5.92-7.81-10.59-16.55-17.12-23.89
		c-3.94-4.41-9.37-8.09-15.51-7.9c-5-0.04-9.83,2.88-12.06,7.37c-3.6,6.93-3.34,15.11-2.3,22.64c1.87,11.41,5.83,22.44,11.16,32.67
		c1.37,2.81,3.75,5.38,3.72,8.67c0.12,2.3-2.32,4.08-4.49,3.45c-3.01-0.75-4.83-3.46-6.76-5.64
		c-14.31-16.37-27.38-33.89-38.27-52.74c-10.32-18.05-18.77-37.64-21.19-58.46c-1.24-12.29-0.41-25.29,5.79-36.25
		c6.06-11.15,18.7-18.49,31.41-17.81c8.78-0.19,17.3,3.21,24.55,7.97c8,5.31,15,11.94,21.69,18.8c0.28-0.55,0.85-1.64,1.14-2.18
		c-4.35-10.26-8.22-20.84-9.69-31.94c-1.15-11.26-0.67-23.09,4.43-33.42c4.93-11.38,14.18-20.66,25.42-25.87
		c-5.17-2.4301-10.47-4.77-14.8-8.57c-12.42-10.51-19.29-27.07-18.51-43.26c-0.25-11.11,2.99-21.93,6.81-32.24
		c1.27-3.6,3.94-7.39,2.06-11.28c-7.63,6.55-14.54,14.07-23.22,19.32c-10.54,6.86-24.16,9.79-36.28,5.68
		c-8.86-2.89-15.87-10.05-19.66-18.44c-4.43-9.36-5.03-19.95-4.43-30.13c1.48-17.38,7.49-34.03,15.19-49.56
		c10.26-20.66,23.73-39.57,38.38-57.32C880.73,410.8,884.13,406.28,888.4,402.62z"/>
	<path fill="#020202" stroke="#020202" stroke-width="0.0938" d="M1519.55,407.47c2.8099-2.92,5.61-6.92,10.25-6.19
		c2.3199,4.71-1.77,8.79-3.63,12.81c-5.53,11.22-9.9,23.28-10.9801,35.81c-0.61,8.26,0.17,18.15,7.3701,23.53
		c3.1499,2.82,7.5699,2.37,11.5,2.25c4.34,0.11,7.7-3.16,10.6399-5.94c6.79-6.88,11.3601-15.5,16.9601-23.28
		c1.4399-2.03,3.48-3.52,5.72-4.57c1.48,2.76,1.41,5.95,0.42,8.86c-3.1101,10.07-6.5,20.1-8.27,30.52
		c-2.04,11.51-2.7001,23.71,1.1799,34.92c2.98,8.82,11.67,16.02,21.25,15.46c4.1901-0.13,8.75,0.63,12.51-1.7401
		c8.7001-3.8799,12.05-13.87,13-22.65c2.2101-18.67-3.36-37.1-9.01-54.7c-1-2.71-1.21-5.59-1.0299-8.45
		c1.61-0.51,3.7799-2.84,5.1599-0.78c4.92,5.89,8.52,12.76,13.2101,18.84c4.0399,5.4,8.71,10.92,15.2699,13.25
		c4.89,0.26,11.1001,1.66,14.62-2.74c6.03-6.13,5.0901-15.55,4.9-23.43c-1.6899-14.89-7.4099-29.09-14.7799-42.04
		c-1.5801-2.53,0.35-5.84,3.2899-5.78c2.66-0.62,4.4,1.77,6,3.47c14.2001,16.11,27.27,33.28,38.1901,51.79
		c9.1699,15.69,16.95,32.42,20.87,50.24c2.4399,11.55,3.4399,23.66,0.84,35.28c-1.95,8.86-6.4,17.45-13.5699,23.19
		c-11.52,9.08-28.2301,8.73-40.8501,2.15c-10.37-5.18-18.6499-13.47-26.97-21.34c-2.0599-0.41-2.25,2.03-1.3199,3.29
		c6.95,16.31,11.9399,34.48,8.24,52.23c-3.14,16-13.72,30.58-28.7101,37.36c16.6101,5.37,28.1801,20.96,31.62,37.68
		c3.91,17.86-1.12,36.18-8.0299,52.64c-1.05,1.54-0.02,3.15,0.4299,4.73c3.63-1.99,6.1801-5.31,9.24-8.01
		c7.17-6.27,14.78-12.38,23.8101-15.76c9.47-3.7,20.51-4.29,29.91,0c6.84,3.03,12.09,8.88,15.38,15.51
		c5.24,10.52,6.0199,22.63,4.9399,34.15c-1.8199,17.31-7.91,33.9-15.73,49.35c-12.21,23.97-28.38,45.73-46.1801,65.81
		c-1.7999,2.09-5.0399,4.62-7.7,2.49c-1.9-1.29-1.28-3.9-0.21-5.5c6.08-9.96,10.2799-21,12.97-32.34
		c1.62-6.47,1.71-13.23,1.29-19.85c-0.6101-5.38-2.4701-11.27-7.25-14.34c-5.8401-3.4901-13.6201-2.34-18.79,1.84
		c-7.71,6.17-12.39,15.06-18.01,22.99c-1.89,2.51-3.34,5.79-6.5,6.93c-3.9401-0.91-2.7-5.68-1.83-8.45
		c5.24-15.83,9.96-32.15,9.99-48.95c-0.75-8.57-1.77-17.83-7.4701-24.7c-6.2699-7.59-17.5-8.96-26.46-6.17
		c-6.22,1.83-10.95,6.99-13.2,12.96c-3.2101,8.35-3.53,17.54-2.74,26.36c1.09,13.43,5.25,26.32,9.2999,39.09
		c0.7101,2.83,1.9501,6.4-0.1,8.93c-1.49,1.79-3.6899,0.12-4.84-1.16c-5.49-7.25-9.9301-15.26-15.7101-22.28
		c-3.33-3.82-7.23-7.55-12.26-8.87c-5.5399-1.64-12.23,0.05-15.5599,4.97c-4.77,6.9-4.39,15.8-3.54,23.77
		c2.03,12.81,6.6,25.19,13.03,36.44c1.42,2.33,3.14,5.84,0.83,8.19c-2.5699,2.25-6.0299-0.03-7.7999-2.18
		c-16.04-18.06-30.65-37.51-42.4301-58.63c-10.4-19.01-18.9199-39.77-19.78-61.67c-0.62-12.28,2.02-25.22,9.8-35.01
		c5.12-6.58,12.91-10.47,20.92-12.28c7.7899-0.92,15.85-0.19,23.0599,3.12c11.73,5.22,21.17,14.29,30.02,23.38
		c0.3101-0.55,0.91-1.63,1.21-2.17c-7.4299-17.08-13.0299-36.15-8.86-54.81c3.54-15.68,14.15-30.05,29.2001-36.33
		c-6.55-3.01-13.15-6.27-18.15-11.6c-8.0701-8.16-13.17-19.01-14.91-30.31c-1.45-11.71,0.0601-23.64,3.77-34.81
		c1.54-5.48,4.21-10.58,5.6801-16.07c-0.3-0.65-0.9-1.96-1.2001-2.61c-10.98,10.07-21.97,21.49-36.86,25.42
		c-10.86,2.87-23.38,1.45-32.21-5.89c-8.8101-7.1801-13.17-18.46-14.24-29.53c-1.62-18.7,3.5199-37.27,10.89-54.29
		C1482.61,454.12,1500.22,429.87,1519.55,407.47z"/>
	<path fill="#020202" stroke="#020202" stroke-width="0.0938" d="M441.67,448.99c2.09-1.1,4.67-0.51,6.48,0.9
		c34.43,23.21,68.93,46.32,103.22,69.75c5.38,3.73,12.01,7.21,13.87,14.03c1.92,6.49-2.01,12.73-6.35,17.21
		c-5.04,4.93-10.67,10.09-17.89,11.23c-5.41,0.91-10.51-2.23-13.95-6.14c-27.04-29.33-53.79-58.92-80.27-88.75
		c-3.01-3.66-6.56-6.91-9.05-10.96C436.14,453.06,439.03,450.32,441.67,448.99z"/>
	<path fill="#020202" stroke="#020202" stroke-width="0.0938" d="M1078.74,450.03c2.0601-1.17,4.64-0.61,6.4401,0.82
		c33.84,22.83,67.7699,45.53,101.47,68.58c4.41,3.18,9.4399,5.72,12.9399,10c3.3201,4.11,4.2101,10.15,1.73,14.9
		c-3.11,6.22-8.5399,10.89-14.0599,14.94c-5.22,3.7-12.63,5.65-18.3101,1.81c-5.83-4.1-9.88-10.14-14.9299-15.09
		c-25.3301-27.68-50.53-55.5-75.35-83.65c-2.03-2.52-5.3-5.2-4.0601-8.83C1075.66,452.02,1077.12,450.86,1078.74,450.03z"/>
	<path fill="#020202" stroke="#020202" stroke-width="0.0938" d="M1710.66,453.51c1.9299-2.82,5.1799-4.54,8.63-4.04
		c34.02,23.1,68.27,45.87,102.1899,69.11c4.41,3.22,9.38,5.78,13.22,9.73c3.9,3.97,5.29,10.27,2.99,15.41
		c-2.8199,6.1201-8.0099,10.71-13.25,14.75c-4.73,3.47-11.0299,6.19-16.84,3.89c-5.71-2.18-9.08-7.6-13.22-11.75
		c-26.73-28.96-53.08-58.26-79.21-87.76C1713.1,460.12,1709.4,457.4,1710.66,453.51z"/>
	<path fill="#020202" stroke="#020202" stroke-width="0.0938" d="M180.19,450.19c4,0.71,3.6,6.73,1.03,9.06
		c-23.97,27.64-48.77,54.55-73.28,81.71c-5.51,5.83-10.72,11.94-16.41,17.6c-3.4,3.32-8.43,5.42-13.19,4.24
		c-6.82-1.47-12.22-6.34-16.88-11.25c-4.16-4.55-7.59-10.85-5.65-17.14c3.62-7.47,11.37-11.3199,17.86-15.89
		c32.88-22.53,66.09-44.58,99.07-66.97C174.85,449.9,177.68,450.24,180.19,450.19z"/>
	<path fill="#020202" stroke="#020202" stroke-width="0.0938" d="M809.76,452.57c2.59-1.93,5.98-1.24,9-1.32
		c2.1,3.04,1.78,7.01-0.95,9.56c-27.22,31.08-55.08,61.58-82.91,92.11c-4.4901,4.66-8.9,10.77-15.97,11.16
		c-7.57,0.11-13.89-4.96-18.98-10.03c-4.74-4.66-9.02-11.27-7.24-18.21c3.03-7.08,10.1-10.98,16.17-15.13
		C742.41,497.86,776.11,475.26,809.76,452.57z"/>
	<path fill="#020202" stroke="#020202" stroke-width="0.0938" d="M1450.16,450.5c2.3199-0.63,4.9199,0.48,5.6699,2.87
		c1.55,3.18-0.87,6.3-2.9099,8.56c-25.8501,29.44-52.26,58.39-78.63,87.37c-3.3501,3.64-6.67,7.32-10.25,10.73
		c-3.73,3.58-9.42,5.09-14.3401,3.29c-6.8999-2.33-12.48-7.5-16.98-13.06c-3.6-4.55-6.1799-11.28-2.8099-16.65
		c4.14-6.53,11.21-10.16,17.37-14.48c32.5399-22.17,65.25-44.11,97.9-66.13C1446.78,452.09,1448.3,450.84,1450.16,450.5z"/>
	<path fill="#020202" stroke="#020202" stroke-width="0.0938" d="M80.67,716.3c5.81-2.46,12.14,0.59,15.9,5.16
		c28.97,31.38,57.62,63.06,85.88,95.09c2.12,2.41,4.91,5.65,3.27,9.05c-1.45,3.77-6.64,4.79-9.7,2.34
		c-34.26-23.03-68.5-46.08-102.64-69.31c-3.84-2.8-8.15-5.07-11.36-8.64c-3.96-4.48-4.46-11.45-1.4-16.55
		C65.17,725.76,72.23,719.37,80.67,716.3z"/>
	<path fill="#020202" stroke="#020202" stroke-width="0.0938" d="M539.12,715.67c3.25-0.48,6.59-0.5,9.86-0.11
		c6.24,2.31,11.17,7.07,15.53,11.96c3.5,4.21,6.07,9.85,4.72,15.42c-1.34,4.55-5.17,7.75-8.92,10.37
		c-36.34,24.7-72.71,49.37-109.22,73.81c-3.8,3.24-10.88,0.12-9.78-5.15c2.08-3.95,5.73-6.73,8.37-10.2599
		c25.7-28.93,51.71-57.56,77.75-86.16C531.1,722.01,534.23,717.61,539.12,715.67z"/>
	<path fill="#020202" stroke="#020202" stroke-width="0.0938" d="M718.54,717c4.57-1.51,9.66,0.09,13.02,3.42
		c6.18,6.16,11.84,12.81,17.87,19.13c23.61,26.07,47.33,52.05,70.51,78.51c1.83,2.1,4.03,4.75,3.1,7.75
		c-0.83,3.28-4.67,5.29-7.84,4.18c-2.1-0.83-3.87-2.25-5.73-3.48c-33.64-22.68-67.34-45.27-100.85-68.14
		c-4.45-3.15-9.84-5.91-11.94-11.28c-2.03-4.81-0.88-10.3701,2.09-14.52C703.48,725.48,710.42,719.72,718.54,717z"/>
	<path fill="#020202" stroke="#020202" stroke-width="0.0938" d="M1354.54,717.03c4.8099-1.67,10.1499,0.24,13.5599,3.84
		c6.26,6.41,12.1901,13.15,18.34,19.68c23.6901,26.29,47.6801,52.34,70.8701,79.08c4.5,3.87,0.62,11.94-5.2301,10.54
		c-4.6699-1.58-8.3099-5.21-12.5199-7.69c-33.4401-22.57-66.9801-45-100.26-67.81c-4.27-2.79-7.6001-7.41-7.5801-12.66
		c-0.11-5.88,3.74-10.69,7.41-14.87C1343.41,722.67,1348.61,718.94,1354.54,717.03z"/>
	<path fill="#020202" stroke="#020202" stroke-width="0.0938" d="M1176.11,716.67c3.39-0.44,6.91-0.62,10.29-0.03
		c5.63,2.2,10.12,6.44,14.2,10.77c4.02,4.39,7.15,10.4301,5.67,16.53c-1.38,4.53-5.17,7.74-8.92,10.36
		c-36.34,24.69-72.7,49.35-109.21,73.78c-3.02,2.36-8.11,1.42-9.55-2.28c-0.98-2.06,0.2001-4.11,1.55-5.63
		c24.51-27.78,49.38-55.24,74.2999-82.65C1161.65,730.61,1167.11,721.44,1176.11,716.67z"/>
	<path fill="#020202" stroke="#020202" stroke-width="0.0938" d="M1812.15,716.68c3.37-0.45,6.88-0.61,10.27-0.05
		c6.2899,2.47,11.24,7.35,15.6,12.37c3.84,4.69,6.4,11.62,3.3199,17.35c-3.36,5.95-9.8199,8.97-15.14,12.84
		c-33.9399,23.08-67.9299,46.09-102.0399,68.92c-3.28,2.62-8.9501,1.04-9.75-3.24c-0.6-1.84,0.71-3.29,1.75-4.62
		c24.7999-28.18,50.0299-56,75.3199-83.75C1798.29,729.87,1803.52,721.16,1812.15,716.68z"/>
	<path fill="#020202" stroke="#020202" stroke-width="0.0938" d="M475.46,844.17c11.69-4.81,24.01-8.11,36.55-9.61
		c7.27,0.04,14.69-0.8,21.82,1.07c9.73,2.03,19.39,7.1,24.72,15.78c5.98,9.41,6.2,21.52,2.73,31.88
		c-4.54,13.4-15.02,23.37-24.28,33.58c1.41,2.84,4.79,1.7,7.02,0.66c11.67-5.17,24.29-8.04,36.99-8.95
		c10.73,0.53,21.68,2.75,30.86,8.63c9.69,5.66,16.8,15.11,20.18,25.75c2.05-3.34,3.56-7,5.88-10.18
		c8.96-12.29,23.51-19.7401,38.45-21.55c6.71-1.58,13.54-0.2,20.26,0.54c8.13,1.51,16.11,3.83,23.73,7.07
		c1.99,0.77,3.92,2.1299,6.19,1.69c-0.09-0.5601-0.26-1.67-0.35-2.23c-8.93-9.36-18.37-18.87-23.32-31.06
		c-2.91-6.93-3.09-14.63-2.23-21.99c2.3-11.13,11.01-20.27,21.34-24.59c6.96-2.8199,14.44-4.67,22.01-4.24
		c17.97-0.87,35.49,4.81,51.75,11.98c11.36,5.14,22.18,11.41,32.65,18.2c1.23,0.54,1.69,1.8,2.02,3.03c0.3-0.17,0.92-0.51,1.23-0.68
		c9.91,6.35,19.14,13.69,28.2401,21.16c3.86,3.76,9.0099,6.53,11.71,11.3c1.66,3.84-3.21,6.67-6.32,4.52
		c-14.75-8.25-31.17-14.86-48.31-14.81c-6.22,0.11-13.32,1.29-17.4,6.46c-4.37,6.03-3.07,14.72,1.67,20.16
		c7.68,9.33,19.08,14.3,28.32,21.78c1.97,1.63,0.86,4.56-1.57,4.94c-5.23,0.45-10.09-2.05-15.02-3.38
		c-15.8-4.95-32.49-8.72-49.11-6.33c-6.98,1.07-14.16,3.84-18.56,9.62c-4.49,6.14-4.98,14.36-3.38,21.58
		c1.93,8.23,9.24,14.16,17.14,16.36c16.15,4.75,33.3,1.29,49.12-3.17c7.2-1.88,14.14-5.42,21.77-4.97c1.28,1.52,0.38,3.62-1.06,4.66
		c-7.2,5.6-15.32,9.91-22.36,15.73c-3.79,3.2-7.39,7.02-8.91,11.86c-1.64,5.21-0.5,11.5,3.75,15.18c6,5.52,14.72,6.38,22.5,5.79
		c13.69-1.88,27.02-6.39,39.02-13.23c2.42-1.37,5.0099-2.55,7.8199-2.81c1.53,2.39,1.47,5.63-0.83,7.53
		c-15.94,14.35-33.07,27.48-51.45,38.5699c-17.34,10.3501-35.93,19.17-55.87,23.05c-13,2.42-26.84,2.9-39.4-1.78
		c-8.85-3.26-16.78-9.71-20.53-18.51c-2.92-6.27-2.65-13.38-2.06-20.09c1.98-11.54,9.11-21.29,16.72-29.85
		c2.99-4,7.38-6.85,9.67-11.37c-0.72-0.3-2.15-0.9-2.87-1.21c-9.99,4.13-20.28,7.81-31.05,9.23c-15.22,2.4-31.5-0.77-44.08-9.85
		c-8.2-5.75-14.29-14.24-17.46-23.7c-5.5,14.89-18.88,25.85-33.98,30.07c-17.46,5.23-36.1201,1.21-52.65-5.34
		c-2.67-0.93-5.47-2.96-8.29-1.33c6.98,7.61,14.54,14.84,19.85,23.8c6.32,9.86,8.92,22.36,5.78,33.77
		c-2.66,9.67-10.2599,17.49-19.35,21.4501c-12.14,5.4399-25.95,5.47-38.88,3.45c-22.24-3.66-42.84-13.6899-61.9-25.36
		c-17.18-10.6901-33.31-23.0699-48.31-36.64c-2.14-1.64-2.4-4.2-1.14-6.45c1.38-0.32,2.75-0.71,4.13-1.0099
		c3.07,0.77,5.63,2.75,8.43,4.15c10.9,5.59,22.67,9.46,34.77,11.4c7.46,0.4801,15.87,0.87,22-4.2c6.74-5.29,5.65-15.77,0.97-22.06
		c-7.56-9.75-19.3-14.69-28.66-22.36c-1.39-0.85-0.94-2.51-1.04-3.84c2.61-0.26,5.22-1.6,7.81-0.55
		c16.32,4.73,32.74,10.83,49.98,10.21c8.13,0.4,16.63-1.23,23.36-6c5.73-4.21,8.38-11.5601,8.11-18.4901
		c0.25-7.65-2.76-15.92-9.42-20.17c-7.94-5.24-17.87-5.9-27.11-5.65c-14.83,0.55-29.14,4.9-43.16,9.4301
		c-3.25,0.87-7.67,2.31-10.12-0.88c1.8-3.41,5.64-5.03,8.6-7.28c8.01-5.61,17.23-10.36,22.75-18.73c3.06-4.18,3.07-9.73,1.94-14.57
		c-1.29-4.97-5.71-8.49-10.55-9.7c-9.91-2.62-20.32-0.75-30.02,1.88c-9.08,2.59-17.8,6.36-25.97,11.09
		c-2.08,1.22-5.39,2.21-7.13-0.05c-2.03-2.03,0.75-4.46,2.18-5.94C418.75,876.02,445.44,856.69,475.46,844.17z"/>
	<path fill="#020202" stroke="#020202" stroke-width="0.0938" d="M1142.84,836.4c6.9501-1.51,14.12-0.82,21.1801-0.89
		c9.85,0.95,19.9299,4.28,27.12,11.34c6.42,6.22,9.67,15.28,9.42,24.14c0.0299,8.55-2.9,16.9-7.4601,24.06
		c-5.25,8.28-12.0499,15.44-18.98,22.32c0.59,1.04,1.2,2.08,1.8101,3.14c10.72-4.41,21.74-8.48,33.2899-10
		c8.55,0.1,17.37-1.17,25.66,1.54c10.34,2.93,20.12,8.76,26.7,17.38c3.0801,3.83,5.03,8.37,7.2101,12.74
		c7.1499-17.59,25.1699-28.83,43.6-30.91c6.98-1.61,14.11-0.24,21.09,0.67c7.84,1.46,15.54,3.74,22.88,6.88
		c2,0.82,3.9401,2.01,6.21,1.84c0.55-2.4-1.6899-3.73-3.0299-5.25c-7.0901-7.32-14.04-15.01-18.76-24.12
		c-3.23-6.23-4.89-13.26-4.49-20.28c-0.39-11.92,7.63-22.67,17.6599-28.35c7.9801-4.1801,17.01-6.65,26.05-6.22
		c19.24-0.91,37.96,5.49,55.1801,13.53c25.37,12.18,48.23,29.0099,69.35,47.49c2,1.72,4.2,4.24,3.13,7.1
		c-1.25,2.76-4.98,2.33-7.13,0.98c-12.62-7.23-26.53-12.6-41.0601-14.2c-7.21-0.5-15.1599-0.5-21.35,3.79
		c-4.98,3.59-5.98,10.54-4.42,16.13c1.63,4.85,5.2201,8.74,9.0601,12c6.99,5.85,15.04,10.26,22.3199,15.73
		c1.3101,0.95,2.0601,2.72,1.2201,4.26c-3.05,2.51-7.15,0.84-10.49-0.02c-18.27-5.91-37.5801-11.54-56.92-8.3
		c-8.25,1.37-16.9401,5.74-19.99,14.03c-3.29,8.95-2.27,20.39,5.0599,27.12c5.4301,5.27,13.0901,7.04,20.3201,8.25
		c11.6599,0.91,23.33-0.78,34.6-3.74c8.1-2.04,15.9301-5.11,24.0699-6.99c2.62-0.94,5.03,2.16,2.9501,4.27
		c-9.5601,8.49-22.5701,13.22-30.03,24.06c-3.88,5.62-4.08,14.2,1.04,19.15c3.61,3.89,8.99,5.36,14.0499,6.29
		c14.12,1,27.9-3.77,40.67-9.34c5.11-2.03,9.4399-6.05,15.08-6.68c1.92,2.59,1.24,6.14-1.27,8.08
		c-16.4299,14.56-33.9299,28.03-52.86,39.19c-16.3199,9.55-33.74,17.6901-52.34,21.5701c-12.21,2.46-25.09,3.23-37.1899-0.2001
		c-8.88-2.52-17.3601-7.76-22.2201-15.78c-3.46-5.38-4.9299-11.83-4.5499-18.1699c-0.26-11.86,6.1599-22.55,13.39-31.45
		c4.1699-5.46,9.6699-9.86,13.34-15.65c-2.5601-2.43-5.53,0.06-8.17,0.89c-15.6699,6.2-33.11,10.26-49.85,6.23
		c-16.25-3.62-30.99-14.97-36.8099-30.83c-6.4501,16.72-22.92,27.85-40.2201,30.7401c-17.5499,2.96-35.21-2.19-51.27-8.98
		c-1.45-1.01-3.3099,0.95-1.84,2.16c8.0801,8.36,16.35,16.93,21.4501,27.5499c5.71,11.8501,6.23,27.03-1.55,38.1001
		c-6.75,9.75-18.48,14.71-29.9301,16.09c-17.7699,2.12-35.62-2.26-52.0699-8.74c-28.52-11.6801-53.95-29.6901-77.22-49.67
		c-2.1-1.9399-4.48-3.6299-6.1-5.99c-1.4801-1.78,0.2699-3.85,0.5699-5.72c2.42-0.23,4.9-0.06,7.03,1.26
		c10.5499,6.18,22.12,10.64,34.09,13.1799c6.21,1.3501,12.7,1.88,19,0.8401c5.39-0.99,10.85-4.03,12.87-9.4
		c1.75-6.08,0.27-12.94-3.89-17.74c-6.4-7.51-15.28-12.1801-23.22-17.8c-2.49-1.85-6.36-3.49-5.6901-7.23
		c2.66-0.24,5.3301-1.61,7.9701-0.55c10.5,2.94,20.8099,6.68,31.59,8.58c8.4399,1.85,17.1,1.87,25.71,1.46
		c7.91-1.2,16.52-4.06,20.91-11.27c4.2-7.61,4.22-17.29,0.72-25.16c-3.2899-7.54-11.4299-11.4-19.11-12.8
		c-18.7-3.2-37.51,1.86-55.2,7.58c-3.5801,0.98-7.36,2.72-11.0901,1.61c-1.6599-0.29-1.3899-2.09-1.59-3.3
		c8.4501-5.82,17.3101-11.1,25.23-17.65c4.4-3.87,8.5601-9.15,8.3-15.33c0.42-5.15-1.7-10.68-6.24-13.42
		c-6.08-3.66-13.52-3.67-20.38-3.16c-14.34,1.62-28.12,6.82-40.5701,14c-2.08,1.15-5.3199,2.17-7.0599-0.04
		c-2.03-2.02,0.66-4.46,2.09-5.96c15.9-14.31,33.05-27.3,51.37-38.37C1101.36,849.05,1121.38,839.75,1142.84,836.4z"/>
	<path fill="#020202" stroke="#020202" stroke-width="0.0938" d="M80.94,841.64c8.56-4.57,18.38-6.73,28.07-6.22
		c8.91-0.45,17.73,1.27,26.32,3.49c16.82,4.58,32.61,12.34,47.48,21.34c17.52,10.66,33.84,23.21,49.21,36.77
		c1.99,1.66,3.8,4.61,2.22,7.15c-1.9,2.38-5.26,1.37-7.47,0.07c-9.29-5.39-19.33-9.47-29.75-12.04c-8.36-1.97-17.22-3.03-25.67-0.97
		c-5.03,1.17-9.86,4.73-10.97,10.01c-1.67,5.93,0.69,12.23,4.74,16.63c7.6,8.43,18.07,13.35,26.93,20.23
		c1.2,0.89,1.78,2.37,1.39,3.86c-2.12,2.34-5.53,1.64-8.22,0.99c-15.38-4.64-30.96-10.01-47.23-9.85
		c-9.24-0.1-19.37,0.98-26.72,7.16c-6.02,4.95-7.83,13.25-7.05,20.7c0.38,7.33,4.92,14.07,11.29,17.59
		c8.93,5.01,19.45,5.39,29.42,4.88c13.27-1.3,26.12-5.05,38.74-9.2c3.09-0.77,6.42-2.53,9.58-1.03c0.55,1.71,0.21,3.51-1.37,4.56
		c-8.55,6.9-18.85,11.6-26.43,19.7c-3.85,4.02-6.42,9.7-5.36,15.34c0.7,5.06,4.65,9.09,9.16,11.13
		c7.32,3.2599,15.68,3.16,23.39,1.5099c12.4-2.2999,24.27-7.0099,35.18-13.2999c1.92-0.83,5.03-2.93,6.5-0.39
		c1.48,2.56-0.5,5.41-2.42,7.1c-25.47,22.37-53.52,42.66-85.42,54.76c-16.1,5.88-33.58,9.53-50.71,6.75
		c-11.69-1.97-23.56-8.1-29.12-19.02c-4.01-6.97-3.87-15.3199-2.94-23.0499c2.53-12.89,11.25-23.28,19.88-32.7
		c2.14-2.41,5.02-4.4,6.06-7.58c-1.41-2.34-3.8-0.7-5.69-0.06c-12.67,5.21-26.21,9.08-40.03,8.73c-17.04-0.42-34.2-8.49-43.93-22.74
		v-51.81c4.64-4.67,8.97-9.79,14.7-13.18c12.49-7.69,27.85-11.06,42.35-8.45c10.87,1.32,21.15,5.23,31.24,9.26
		c0.38-0.39,1.14-1.16,1.52-1.54c-7.74-8.66-16.38-16.8-21.78-27.25c-4.72-8.35-5.77-18.3199-4.19-27.66
		C65.99,854.01,72.81,846.32,80.94,841.64z"/>
	<path fill="#020202" stroke="#020202" stroke-width="0.0938" d="M1711.8101,864.61c22.4399-14.37,47.3199-26.36,74.1299-29.09
		c6.67,0.11,13.4701-0.72,20.03,0.89c10.0901,1.88,20.13,7.02,25.67,15.95c6.29,9.9,6.27,22.76,2.1799,33.49
		c-4.8999,12.71-14.85,22.38-23.95,32.15c1.64,1.88,4.25,2.06,6.4,0.88c11.5599-5.28,24.08-8.18,36.7-9.29
		c14.62,0.08,29.72,4.67,40.4,15.03c16.17,15.42,18.4401,42.99,5.16,60.92c-8.9501,12.27-23.74,19.42-38.64,20.98
		c-15.96,1.54-31.7001-3.12-46.28-9.18c-1.33-0.86-2.64,0-3.87,0.48c6.71,7.13,13.72,14.1,19.01,22.4
		c4.8,7.3301,7.9399,15.9401,7.88,24.78c0.28,9.12-3.3,18.37-9.99,24.65c-7.6,7.39-18.26,10.65-28.61,11.5499
		c-17.63,1.3201-35.14-3.2699-51.3201-9.9299c-28.35-12-53.6-30.17-76.75-50.23c-1.77-1.63-3.7999-3.1-4.88-5.29
		c0-1.32,0.24-2.61,0.4401-3.9c1.4199-0.34,2.84-0.7599,4.29-1.09c2.83,0.6,5.2,2.43,7.75,3.73
		c11.36,5.95,23.6899,10.0701,36.3999,11.9c6.4701,0.34,13.42,0.5499,19.1901-2.9c3.5-2.31,6.74-5.98,6.48-10.44
		c0.8099-6.14-2.0699-12.1-6.38-16.3c-7.35-7.25-16.64-12.02-24.8199-18.19c-0.89-0.8-2.02-1.52-2.29-2.71
		c-0.3-2,2.0599-2.19,3.39-2.85c1.71-0.85,3.5499,0.13,5.2999,0.46c11.91,3.46,23.6901,7.73,36.0801,9.23
		c6.1799,1.34,12.5599,0.69,18.85,0.79c7.8-0.78,16.2-3.18,21.34-9.52c4.14-4.97,4.8201-11.77,4.39-17.9901
		c-0.42-7.16-4.0599-14.42-10.52-17.92c-9.36-5.34-20.61-5.29-31.03-4.55c-13.33,1.31-26.1699,5.3-38.87,9.36
		c-2.9299,0.74-7.13,1.92-9.1499-1.12c0.26-1.7,1.84-2.56,3.0599-3.55c7.8-5.6,16.23-10.38,23.48-16.71
		c3.9-3.79,7.4501-8.76,7.2201-14.44c0.4199-5.17-1.6801-10.75-6.28-13.46c-6.11-3.64-13.5601-3.63-20.42-3.11
		c-13.34,1.54-26.23,6.14-37.96,12.59c-2.7001,1.46-6.0701,3.91-9.11,1.93c-2.4701-1.72-0.54-4.47,1.09-5.99
		C1681.09,886.5,1695.89,874.72,1711.8101,864.61z"/>
	<path fill="#020202" stroke="#020202" stroke-width="0.0938" d="M1585.61,914.43c18.62-1.85,36.3201,11.72,41.77,29.18
		c5.96,17.09,0.12,37.47-14.24,48.56c-13.84,11.63-35.08,12.63-50.22,2.94c-12.9401-7.88-21.5601-22.89-20.5701-38.17
		C1542.63,934.36,1563.16,914.49,1585.61,914.43z"/>
	<path fill="#020202" stroke="#020202" stroke-width="0.0938" d="M306.29,913.95c8.11-1.09,16.73-1.07,24.3,2.47
		c12.53,5.31,21.87,17.05,24.81,30.27c2.28,9.78,1.24,20.37-3.27,29.38c-5.73,11.95-17.15,21.06-30.15,23.78
		c-11.63,2.41-24.23-0.04-33.96-6.89c-11.62-7.9-19.43-21.7401-18.74-35.94c-0.26-11.23,4.84-22.17,12.69-30.04
		C288.36,920.12,297.21,915.91,306.29,913.95z"/>
	<path fill="#020202" stroke="#020202" stroke-width="0.0938" d="M943.28,914.88c8.62-1,17.81-1.04,25.71,3.11
		c15.74,7.3,25.55,24.8,24.56,41.99c-0.62,19.06-15.19,36.58-33.81,40.68c-16.99,4.04-35.87-3.29-45.78-17.65
		c-9.84-13.51-10.4-33.03-1.2401-47.03C919.24,924.91,930.83,917.51,943.28,914.88z"/>
	<path fill="#020202" stroke="#020202" stroke-width="0.0938" d="M251.03,1040.91c2.56-2.4301,5.16-6.5701,9.28-5.3
		c1.55,1.96,1.15,4.63-0.06,6.67c-6.98,11.96-12.09,25.1799-14.01,38.9399c-0.9,7.25-0.87,15.17,2.85,21.7001
		c3.79,6.5499,12.75,9.87,19.59,6.1c7.78-4.15,12.67-11.9301,17.47-19.03c3.52-5.01,6.21-11.11,11.92-14.04
		c2.25,3.7301,0.89,8.03-0.36,11.8501c-4.48,13.6799-8.54,27.73-8.99,42.22c-0.11,9.03,0.71,18.7,5.88,26.4
		c8.04,11.75,27.15,13.64,36.9,3.0399c5.45-6.8199,7.12-15.95,7.1-24.48c0.58-15.24-3.63-30.12-8.22-44.5
		c-1.19-3.88-2.88-7.9199-1.86-12.03c0.86-1.1699,2.44-1.5,3.64-2.23c8.04,8.98,12.88,20.54,21.92,28.7001
		c3.89,3.26,8.74,6.0599,14,5.61c4.29,0.15,8.17-2.7101,10.44-6.17c3.78-6.7999,3.31-14.9,2.73-22.39
		c-2.06-13.8199-7.01-27.1699-14-39.24c-1.16-1.8099-1.86-4.87,0.26-6.21c2.02-1.96,5.35-1.11,6.96,0.97
		c15.72,17.66,30.1,36.62,41.8,57.21c8.48,15.2201,15.7,31.3601,19.1,48.53c2.33,12.09,3.02,24.84-0.54,36.77
		c-2.69,9.03-8.25,17.5601-16.61,22.25c-10.4,5.83-23.46,5.39-34.22,0.72c-11.49-4.97-20.53-13.9199-29.48-22.4
		c-1.6-1.1799-2.48,0.9701-1.76,2.25c4.84,11.55,8.84,23.65,9.68,36.2301c1.23,16.83-4.71,34.5599-17.4,45.99
		c-13.44,12.46-34.41,15.1-51.03,7.95c-17.38-7.72-28.01-26.39-29.05-44.97c-0.67-14.62,3.28-29.0701,9.08-42.39
		c0.72-1.86,1.53-4.59-0.83-5.5699c-7.75,7.37-15.44,15.0499-24.85,20.3199c-7.04,4.09-15.17,6.45-23.35,6.12
		c-9.9-0.09-19.8-4.77-25.72-12.79c-6.28-8.13-8.97-18.5699-9.01-28.72c-0.67-20.05,6.03-39.52,14.7-57.3199
		C216.96,1083.3101,233.23,1061.3,251.03,1040.91z"/>
	<path fill="#020202" stroke="#020202" stroke-width="0.0938" d="M892.45,1037.66c1.49-1.48,5.17-2.2201,5.72,0.5
		c0.8,2.52-0.77,4.9-1.93,7.0299c-5.09,8.6101-8.65,18.0701-11.2,27.7201c-2.08,8.7-3.43,18.0299-0.79,26.77
		c1.95,6.7799,8.56,12.4399,15.83,11.83c4.97-0.1901,9.27-3.36,12.61-6.83c4.66-4.54,8.01-10.16,11.65-15.5
		c3.05-4.5,5.73-9.62,10.73-12.27c2.65,4.25,0.48,9.12-0.83,13.4199c-5.95,18.61-11.52,38.7001-6.63,58.1901
		c2.39,10.46,12.24,19.5,23.39,18.2c6.93,0.8401,14.22-1.6699,18.43-7.4c4.69-6.7599,6.23-15.25,6.2-23.34
		c0.57-14.4399-3.19-28.59-7.46-42.25c-1.26-4.4299-3.56-8.86-2.76-13.59c0.14-1.9301,2.5-2.08,3.83-2.9301
		c7.68,8.66,12.47,19.62,20.86,27.73c4.72,4.5,11.4301,7.9801,18.06,6.15c6.25-1.72,9.39-8.23,10.19-14.1899
		c0.39-5.3,0.51-10.67-0.34-15.9301c-2.33-13.34-7.24-26.1899-14.05-37.87c-1.32-1.91-0.41-4.23-0.17-6.2999
		c2.69-0.3301,5.9-0.91,7.72,1.7c16.4,18.37,31.34,38.1899,43.25,59.79c9.71,17.87,17.59,37.23,19.3,57.6699
		c0.8999,11.1001-0.15,22.75-5.3201,32.78c-3.58,7.0601-9.46,13.11-16.86,16.12c-10.3,4.24-22.27,3.15-32.22-1.53
		c-9.77-4.6499-17.87-12-25.58-19.4299c-1.25-1.0701-2.24-2.8101-4.09-2.62c-1.09,1.95,0.49,3.85,1.09,5.72
		c6.25,15.3101,10.63,32.22,7.47,48.79c-2.94,16.21-13.33,31.5599-28.74,38.1799c-12.62,5.3101-27.64,5.29-40.05-0.61
		c-15.47-7.54-25.46-23.89-27.38-40.72c-0.37-8.34-0.51-16.83,1.64-24.9501c1.66-7.21,4.16-14.1799,7-21
		c0.74-1.8799,1.6-4.5699-0.74-5.6699c-7.64,7.1699-15.1201,14.75-24.29,20c-6.93,4.09-14.9,6.6-22.99,6.46
		c-9.74,0.15-19.62-4.0699-25.79-11.6799c-6.84-8.26-9.86-19.16-9.91-29.75c-0.66-17.77,4.71-35.14,11.8-51.24
		c9.71-21.3601,22.84-41.02,37.5-59.28C881.78,1049.49,886.39,1042.88,892.45,1037.66z"/>
	<path fill="#020202" stroke="#020202" stroke-width="0.0938" d="M1524.54,1041.42c2.38-2.38,4.9399-5.9701,8.8199-4.88
		c1.85,2.21,0.98,5.26-0.39,7.47c-5.26,8.8199-9.09,18.45-11.71,28.36c-2.12,8.42-3.42,17.36-1.36,25.92
		c1.22,4.96,4.4,9.5699,9.09,11.7999c5.09,2.77,11.53,1.4701,15.97-1.99c7.86-6.11,12.63-15.0499,18.2101-23.09
		c2.0399-2.97,4.11-6.26,7.51-7.8101c2.9299,2.2301,1.59,6.4,0.7999,9.39c-5.79,18.0701-11.7,37-9,56.2001
		c1.09,8.5699,5.11,17.5599,13.1801,21.62c5.47,3.34,12.15,2.1699,18.24,2.12c6.0599-1.0801,11.38-5.48,13.9-11.0901
		c4.2999-8.7999,4.13-18.85,3.75-28.3899c-1.0901-13.5-5.0901-26.53-9.25-39.3401c-1.02-2.7999-1.12-5.7899-0.8601-8.71
		c1.6001-0.48,3.6201-2.48,5.03-0.55c4.88,5.92,8.55,12.76,13.2101,18.87c3.6499,4.9401,7.7899,9.88,13.5199,12.4901
		c4.66,2.45,10.8201,2.5499,15.16-0.67c3.8101-2.5601,5.0601-7.3101,5.9301-11.55c2.0599-16.76-3.5901-33.2999-10.78-48.2
		c-1.47-3.55-5.13-6.76-4.03-10.9c1.35-1.92,3.67-2.11,5.84-2.1c6.0801,5.71,11.04,12.49,16.4301,18.84
		c13.52,17.04,25.8,35.21,35.12,54.91c7.97,17.14,13.9301,35.74,13.51,54.84c-0.26,11.25-3.3,22.9401-10.86,31.55
		c-6.05,7.02-15.3,10.9299-24.51,10.95c-8.41,0.26-16.75-2.2999-23.92-6.61c-8.8099-5.21-16.1599-12.42-23.5399-19.4
		c-2.1101-0.96-2.3301,1.8401-1.41,3.0901c6.6799,15.75,11.61,33.1399,8.66,50.34c-2.75,16.52-13.1801,32.26-28.8301,39.02
		c-14.02,5.9299-31.1,5.35-44.14-2.79c-12.37-7.65-20.37-21.16-22.9399-35.3c-2.48-15.97,1.0599-32.21,7.3099-46.9199
		c0.9-2.4701,2.7101-5.5701,0.67-7.9501c-4.46,3.0801-7.85,7.4701-12.12,10.8c-7.25,6.28-15.41,11.92-24.78,14.38
		c-10.2,2.65-21.78,1.62-30.5-4.63c-9.25-6.51-14.21-17.6-15.64-28.5601c-2.38-19.49,3.05-38.9299,10.66-56.7
		C1486.83,1088.71,1504.73,1064.04,1524.54,1041.42z"/>
	<path fill="#020202" stroke="#020202" stroke-width="0.0938" d="M445.78,1084.1c2.01-1.2899,4.45-0.38,6.2,0.9
		c35.04,23.64,70.16,47.16,105.04,71.01c3.87,2.66,8.21,5.1,10.6,9.33c2.35,3.86,2.63,8.88,0.63,12.9601
		c-2.78,5.86-7.77,10.26-12.8,14.1699c-4.56,3.39-10.51,6.15-16.25,4.3301c-5.25-1.4601-8.47-6.1801-12.12-9.8501
		c-27.47-29.8999-54.73-60-81.57-90.46c-2.13-2.51-5.31-5.3099-4-8.97C442.66,1086.0699,444.14,1084.92,445.78,1084.1z"/>
	<path fill="#020202" stroke="#020202" stroke-width="0.0938" d="M1084.2,1084.67c2.03-0.76,3.8101,0.7899,5.4801,1.74
		c36.3999,24.5599,72.8999,48.99,109.12,73.8199c4.23,2.88,7.75,7.4501,7.8099,12.76c0.2001,5.92-3.75,10.92-7.6899,14.92
		c-5.03,4.74-10.74,9.72-17.91,10.4199c-5.4401,0.55-10.17-2.8999-13.53-6.8099c-26.9199-29.1-53.4399-58.5701-79.7999-88.1801
		c-3.03-3.86-6.9701-7.09-9.2401-11.47C1077.09,1087.9399,1081.3,1085.9399,1084.2,1084.67z"/>
	<path fill="#020202" stroke="#020202" stroke-width="0.0938" d="M1719.27,1084.99c2.4299-1.48,4.98,0.52,7.04,1.79
		c36.22,24.4299,72.5,48.75,108.5499,73.4299c4.76,3.2101,8.5,8.6801,7.77,14.65c-0.79,5.91-5.03,10.62-9.22,14.53
		c-4.8401,4.4299-10.5601,8.86-17.41,8.97c-5.36,0.0701-9.65-3.58-12.97-7.37c-27.04-29.33-53.77-58.9299-80.25-88.76
		c-2.75-3.48-6.3201-6.39-8.29-10.39C1713.26,1088.4,1716.77,1086.39,1719.27,1084.99z"/>
	<path fill="#020202" stroke="#020202" stroke-width="0.0938" d="M178.17,1085.83c2.14-0.89,4.58-0.5599,6.85-0.5399
		c3.17,2.6599,2.09,7.52-0.68,10.0499c-27.07,30.89-54.76,61.23-82.45,91.5801c-4.35,4.37-8.29,10.24-14.88,11.1899
		c-7.26,0.91-13.68-3.71-18.69-8.42c-4.56-4.3799-9.36-9.9099-9.07-16.6299c-0.24-5.27,4.18-8.9901,7.79-12.13
		c6.2-4.54,12.72-8.63,18.98-13.0801C116.74,1127.17,147.31,1106.26,178.17,1085.83z"/>
	<path fill="#020202" stroke="#020202" stroke-width="0.0938" d="M815.16,1086.8101c2.73-0.5,7.31-2.01,8.44,1.61
		c1.71,3.38-1.03,6.61-3.16,9.01c-27.15,30.8199-54.78,61.22-82.5,91.5299c-3.65,3.6901-6.98,8.3201-12.25,9.74
		c-5.93,1.75-11.97-1.26-16.6-4.7999c-5.23-4.3201-10.5-9.3101-12.4901-16.01c-0.54-3.16-0.72-6.78,1.29-9.49
		c4.3-6.34,11.31-9.89,17.4-14.24C748.5,1131.6,781.75,1109.0699,815.16,1086.8101z"/>
	<path fill="#020202" stroke="#020202" stroke-width="0.0938" d="M1451.1899,1086.85c2.1001-0.91,4.54-0.6,6.8101-0.61
		c2.11,1.5701,2.89,4.83,1.51,7.16c-1.98,3.28-4.87,5.89-7.24,8.87c-25.67,28.98-51.6901,57.64-77.8,86.21
		c-3.85,3.79-7.1899,8.71-12.6599,10.21c-5.9801,1.78-12.05-1.25-16.6901-4.83c-5.24-4.29-10.45-9.3099-12.45-15.98
		c-0.63-3.15-0.7001-6.74,1.26-9.46c4.4399-6.5801,11.7699-10.12,18.0199-14.67
		C1384.95,1131.33,1417.98,1108.9399,1451.1899,1086.85z"/>
	<path fill="#020202" stroke="#020202" stroke-width="0.0938" d="M291.41,1288.52c8.78-7.13,20.27-10.9401,31.59-10.11
		c18.43-1.16,35.15,12.2,41.74,28.84c9.23,21.01,3.49,44.85-5.51,64.89c0.38,0.79,0.77,1.6,1.15,2.4299
		c0.54-0.0299,1.62-0.1,2.16-0.1399c6.85-7.25,14.37-13.9601,22.93-19.14c7.42-4.24,15.89-7.23,24.54-6.8201
		c8.97-0.21,18,3.8401,23.79,10.72c6.53,7.7101,9.5,17.8101,10.19,27.75c1.22,18.29-3.89,36.3701-11.05,53.03
		c-11.83,26.77-29.07,50.79-48.13,72.86c-2.49,2.61-4.69,6.5-8.73,6.66c-3.48-0.28-3.61-4.36-1.99-6.62
		c4.6-7.3199,7.88-15.38,10.52-23.59c3.04-9.74,5.05-20.0901,3.34-30.27c-0.95-5.3101-3.38-11.15-8.73-13.28
		c-6.8-2.91-14.64-0.21-19.62,4.87c-7.42,7.5-12.34,16.99-18.64,25.38c-0.91,1.1901-2.25,2.22-3.82,2.27
		c-3.28-1.1899-1.78-5.28-1.48-7.8101c6.04-18.48,11.99-37.85,9.31-57.5c-1.2-7.6399-3.96-15.7799-10.63-20.3199
		c-7.15-4.62-16.65-4.9399-24.42-1.77c-8.11,3.39-12.24,12.11-13.46,20.36c-3.08,19.3201,2.74,38.51,8.61,56.73
		c0.7,2.9701,2.32,6.63,0.15,9.3701c-1.47,2.0099-4.04,0.12-5.18-1.3301c-5.72-7.6699-10.33-16.16-16.68-23.36
		c-3.91-4.41-9.23-8.17-15.36-8.0699c-5.31-0.2201-10.31,3.09-12.6,7.8199c-2.8,5.75-3.09,12.39-2.51,18.67
		c1.39,12.24,5.52,24.0499,11.03,35.02c1.39,2.98,3.6,5.6299,4.3,8.9099c0.32,2.0601-1.05,4.4-3.3,4.4601
		c-2.99,0.09-5.04-2.4601-6.86-4.4501c-14.65-16.71-28.1-34.5499-39.24-53.79c-9.03-16-16.82-33-20.17-51.1799
		c-1.69-8.22-1.59-16.66-1.19-24.99c1.26-12.54,7.41-25.15,18.46-31.8c11.92-7.14,27.41-5.99,39.25,0.73
		c10,5.3301,17.75,13.77,26.16,21.13c1.14-2.75-0.62-5.25-1.57-7.72c-3.69-9.15-6.6-18.72-7.58-28.5699
		C269.68,1320.28,276.75,1300.38,291.41,1288.52z"/>
	<path fill="#020202" stroke="#020202" stroke-width="0.0938" d="M1580.62,1281.12c5.22-2.08,10.87-1.6899,16.37-1.72
		c16.73-0.77,32.11,10.65,39.24,25.3199c7.9501,15.24,7.75,33.4301,2.96,49.62c-1.7999,6.6801-4.5,13.0601-6.96,19.52
		c0.89,0.66,1.8101,1.33,2.75,2.02c11.03-11.3101,23.5601-22.64,39.52-25.9c8.59-1.34,17.9301-0.7,25.4,4.14
		c10.21,6.35,15.3199,18.33,16.8099,29.86c2.3301,18.79-2.64,37.65-9.7899,54.9c-10.53,24.83-26.04,47.2-43.0701,67.99
		c-3.25,3.72-6.33,7.62-9.77,11.17c-1.63,1.6799-4.45,3.3199-6.64,1.72c-2.09-1.24-1.33-4.14-0.2699-5.8101
		c6.0399-9.9299,10.24-20.9399,12.84-32.26c1.7-6.75,1.96-13.7899,1.25-20.6799c-0.87-4.96-2.54-10.4401-7.01-13.3
		c-6.26-3.89-14.7-2.2999-20,2.52c-8.66,7.64-13.62,18.38-20.71,27.3201c-1.24,1.7699-4.25,2.36-5.14,0.0299
		c-0.87-4.1599,1.0599-8.1899,2.25-12.08c3.48-10.55,6.28-21.36,7.6799-32.4c0.66-11.02,0.92-22.8199-4.6699-32.75
		c-8.01-14.28-32.24-14.26-40.13,0.11c-3.24,5.6001-4.3101,12.13-4.72,18.51c-0.75,15.4301,3.1499,30.61,7.8799,45.1801
		c1.0601,3.5499,2.52,7.08,2.6901,10.84c-0.0699,1.53-0.51,4.0601-2.53,3.98c-1.59,0.2101-2.88-0.9099-3.74-2.0599
		c-5.86-7.86-10.54-16.6-17.16-23.88c-4.0399-4.47-9.76-8.02-15.99-7.47c-5.5299,0.1599-10.24,4.25-12.1499,9.2799
		c-2.76,7.17-2.38,15.12-1.05,22.5601c2.34,12.47,7.05,24.46,13.45,35.4c1.5701,2.3199,1.73,6.4099-1.38,7.5299
		c-2.5,0.49-4.72-1.14-6.2799-2.87c-14.1101-15.83-27.04-32.77-38.03-50.9199c-9.5601-16.03-17.79-33.13-21.92-51.42
		c-2.3099-9.8-2.83-19.97-1.96-29.98c1.37-9.65,4.95-19.46,12.2999-26.17c10.38-10.5399,27.3501-12.0599,40.54-6.36
		c12.0701,5.1,21.39,14.62,30.74,23.47c0.5-1.4299,0.89-3,0.0601-4.37c-6.9401-16.1899-11.85-34.24-8.0901-51.84
		C1549.9399,1302.25,1562.87,1286,1580.62,1281.12z"/>
	<path fill="#020202" stroke="#020202" stroke-width="0.0938" d="M925.94,1291.92c6.69-6.75,15.81-10.6801,25.08-12.3201
		c4.99-0.3099,10.01-0.24,15.02-0.11c17.56,1.9401,31.81,15.97,37.15,32.36c7.07,19.75,1.75,41.29-6.31,59.87
		c-1.09,1.5,0.44,2.9601,0.95,4.4c5.51-4.16,10.03-9.46,15.58-13.59c9.44-7.63,21.16-13.75,33.6201-13.0701
		c8.0399-0.25,16.09,3.0601,21.89,8.62c7.11,7.12,10.74,17.04,11.8199,26.9c2.0701,18.98-3.11,37.9501-10.48,55.3
		c-12.11,27.71-30.0701,52.4399-49.82,75.1699c-1.65,1.78-3.2,3.89-5.59,4.7001c-1.89,0.83-4.5099-0.3-4.8-2.4301
		c0.03-3.4,2.57-5.95,3.96-8.85c5.64-10.89,9.55-22.72,11.33-34.86c0.4601-7.65,0.6901-15.99-3.58-22.71
		c-3.02-4.8201-9.35-6.51-14.7-5.5c-5.24,0.9199-9.48,4.5-12.89,8.37c-6.06,7.12-10.63,15.34-16.2,22.8199
		c-1.22,1.6901-3.46,2.99-5.3,1.4c-1.35-3.52,0.13-7.33,1.21-10.73c3.89-11.5701,7.07-23.4301,8.49-35.5801
		c0.58-11.12,0.68-23.1799-5.53-32.9199c-6.55-10.05-21.1-11.74-31.28-6.6801c-7.55,3.97-11.13,12.51-12.2,20.59
		c-2.31,16,1.38,32.12,6.08,47.3601c1.29,4.5099,3.14,8.8999,3.83,13.5699c0.21,1.8199-0.11,4.79-2.44,5
		c-2.73,0.1899-4.07-2.54-5.43-4.38c-5.25-7.41-9.7401-15.41-15.95-22.0699c-4.37-4.7201-10.85-8.1101-17.4-6.75
		c-5.29,0.8999-9.24,5.38-10.8,10.34c-2.37,7.39-1.74,15.36-0.26,22.87c2.45,11.64,6.81,22.88,12.79,33.16
		c1.25,2.11,2.31,5,0.55,7.1799c-2.78,2.5-6.41-0.01-8.3-2.35c-22.47-25.7-43-53.95-54.92-86.2
		c-4.56-12.74-7.51-26.2301-6.82-39.8201c-0.05-14.4399,6.35-30.0599,19.56-37.13c-0.55,0.01-1.08,0.04-1.61,0.0801
		c4.29-1.3401,8.36-3.37,12.79-4.25c6.81-0.55,13.84-0.4501,20.28,2.12c10.72,3.8999,19.4,11.6,27.63,19.24
		c1.51,1.4199,2.86,3.01,4.11,4.6899c0.89-0.4199,3.1-0.1699,2.12-1.6699c-7.11-16.4601-12.78-34.64-9.38-52.7001
		C912.06,1310.26,917.57,1299.64,925.94,1291.92z"/>
	<path fill="#020202" stroke="#020202" stroke-width="0.0938" d="M88.64,1358.16c5.31-2.03,11.22,0.22,14.85,4.34
		c26.78,28.9,53.13,58.22,79.37,87.61c3.45,4.23,7.52,7.98,10.48,12.58c2.61,4.77-3.19,10.4901-7.95,8.02
		c-4.7-2.52-8.86-5.9099-13.37-8.73c-31.84-21.47-63.72-42.88-95.45-64.51c-2.94-1.98-5.92-4.09-7.92-7.0699
		c-3.24-4.9-2.89-11.6901,0.52-16.41C73.92,1367.02,80.56,1360.9399,88.64,1358.16z"/>
	<path fill="#020202" stroke="#020202" stroke-width="0.0938" d="M547.07,1357.5601c3.41-0.25,6.94-0.5901,10.31,0.1599
		c5.97,2.48,10.81,7.0601,15.01,11.89c3.59,4.35,6.25,10.41,4.33,16.05c-2.3199,6.01-8.27,9.2799-13.31,12.76
		c-34.96,23.74-69.92,47.49-105.07,70.9399c-4.26,3.21-11.35-1.41-8.78-6.6c16.95-19.71,34.6-38.8,51.88-58.21
		c12.53-13.52,24.64-27.4,37.37-40.74C541.24,1361.36,543.78,1358.8,547.07,1357.5601z"/>
	<path fill="#020202" stroke="#020202" stroke-width="0.0938" d="M725.57,1359.15c5.32-2.01,11.32,0.16,14.94,4.34
		c24.44,26.24,48.37,52.97,72.32,79.65c5.57,6.45,11.46,12.62,16.79,19.26c2.2,2.62,1.61,7.03-1.38,8.8099
		c-2.42,1.7201-5.63,1-7.87-0.63c-35-23.64-70.1-47.14-104.99-70.95c-3.88-2.6901-8.24-5.23-10.46-9.58
		c-2.57-4.99-1.66-11.2301,1.66-15.66C711.34,1367.76,717.71,1361.83,725.57,1359.15z"/>
	<path fill="#020202" stroke="#020202" stroke-width="0.0938" d="M1360.74,1359.47c5.73-2.59,12.46-0.26,16.29,4.49
		c29.02,31.3501,57.65,63.0601,85.9199,95.0901c2.05,2.3899,4.9401,5.21,3.87,8.7c-0.96,4.1899-6.5099,5.8-9.7899,3.2
		c-35.05-23.6-70.12-47.1499-105.03-70.9399c-3.6899-2.5701-7.78-4.89-10.3-8.72c-3.0599-4.64-2.86-10.99,0.1801-15.5801
		C1346.34,1368.6,1352.86,1362.53,1360.74,1359.47z"/>
	<path fill="#020202" stroke="#020202" stroke-width="0.0938" d="M1184.0699,1358.5601c3.42-0.26,6.9701-0.5901,10.3601,0.1299
		c5.7699,2.3601,10.4299,6.76,14.5499,11.3401c3.6901,4.2999,6.51,10.13,5.03,15.9c-2,6.1899-7.9401,9.63-13,13.09
		c-33.75,22.9399-67.5601,45.79-101.42,68.5699c-2.96,1.9601-6.48,5.0801-10.22,3.16c-3.03-1.02-4.25-5.08-2.36-7.58
		c22.09-25.26,44.6899-50.0601,67.22-74.9301c7.61-8.38,15.14-16.85,23.0701-24.9399
		C1179.3,1361.42,1181.4,1359.4,1184.0699,1358.5601z"/>
	<path fill="#020202" stroke="#020202" stroke-width="0.0938" d="M1820.09,1358.58c3.41-0.2999,6.9501-0.59,10.35,0.0901
		c5.5801,2.23,10.0601,6.45,14.1001,10.7899c3.74,4.1801,6.6899,9.7201,5.77,15.51c-1.01,4.7001-4.75,8.12-8.5,10.8101
		c-35.3101,24.0699-70.75,47.97-106.1901,71.85c-2.8199,1.78-5.84,4.61-9.4399,3.47c-3.3201-0.84-5.3401-5.08-3.12-7.9
		c27.2799-31.0599,55.09-61.6399,82.9199-92.1899C1810.58,1366.78,1814.16,1361.0699,1820.09,1358.58z"/>
	<path fill="#020202" stroke="#020202" stroke-width="0.0938" d="M106.1,1477.79c11.36-1.39,22.93-0.4601,34.02,2.3099
		c19.65,4.86,37.91,14.11,54.93,24.89c15.9,10.05,30.77,21.65,44.87,34.08c2.03,1.7201,3.96,5.1901,1.66,7.4701
		c-2.69,2.3999-6.23,0.0499-8.81-1.3201c-11.55-6.47-24.27-11.08-37.43-12.78c-6.85-0.6299-14.18-0.7699-20.49,2.3701
		c-4.21,2.08-7.02,6.5-7.17,11.1899c-0.58,5.45,2.13,10.65,5.82,14.49c7.41,7.89,17.3,12.71,25.85,19.1801
		c1.14,0.76,1.75,2.0299,2.17,3.33c-1.76,4.02-6.83,2.27-10.07,1.48c-17.5-5.5499-35.74-11.22-54.32-9.1
		c-7.73,0.85-16.02,3.39-20.95,9.79c-5.44,7.5199-5.74,18.1799-1.75,26.4199c4.39,8.39,13.91,12.05,22.78,13.41
		c18,2.37,35.77-2.99,52.76-8.36c3.37-0.9,6.78-2.54,10.34-1.91c0.79,1.13,1.72,2.54,0.37,3.72c-1.91,2.54-4.84,4.03-7.38,5.8601
		c-6.86,4.71-14.24,8.8799-20,14.99c-3.7,3.88-6.28,9.21-5.57,14.6799c0.49,5.4401,4.64,9.91,9.51,12
		c6.84,2.9,14.55,3.1801,21.76,1.66c12.2-2.13,23.99-6.4501,34.76-12.55c2.35-1.12,4.73-3.01,7.49-2.47
		c2.71,2.4,0.81,6.1901-1.54,8.04c-19.85,17.7-41.43,33.6599-65.1,45.88c-17.61,8.9099-36.66,15.96-56.58,16.6799
		c-11.44,0.36-23.45-1.59-33.06-8.1699c-6.31-4.17-11.01-10.6901-13.03-17.9701c-2.62-9.5699-0.81-19.98,3.75-28.6699
		c3.81-7.41,9.18-13.9,14.87-19.9301c2.2-2.48,5.12-4.51,6.4-7.65c-0.23-0.6-0.68-1.7899-0.9-2.39
		c-4.19,1.1101-8.08,3.0901-12.19,4.4501c-12.18,4.1899-25.24,6.9399-38.15,5.25c-16.27-2.01-32.1-11.1801-40.02-25.83
		c-3.53-6.13-4.73-13.1801-5.7-20.0801v-4.51c1.16-9.71,4.28-19.49,10.98-26.83c10.96-13.04,28.34-19.38,45.07-19.36
		c11.08,0.62,22.06,3.14,32.39,7.21c3.13,1.1,6.13,3.3,9.61,2.53c-1.23-1.9-2.59-3.6901-4.17-5.27
		c-11.04-11.23-22.37-24.46-23.12-40.98c-0.61-9.85,3.39-19.91,10.78-26.48C88.33,1482.46,97.21,1479.23,106.1,1477.79z"/>
	<path fill="#020202" stroke="#020202" stroke-width="0.0938" d="M451.57,1502.33c20.89-12.73,43.83-23.1499,68.37-25.7899
		c7.59,0.01,15.33-0.79,22.74,1.2799c9.42,2.16,18.66,7.27,23.76,15.7401c6.46,10.5,6.09,24.0699,1.26,35.1399
		c-4.9,10.99-13.24,19.9401-21.6,28.4c-1.41,0.8-0.99,2.3201-0.17,3.4401c3.43,0.59,6.41-1.55,9.52-2.61
		c8.62-3.2401,17.59-5.9,26.81-6.65c6.86-1.5801,13.88-0.1801,20.67,1.0699c16.87,3.5601,31.98,15.9,36.98,32.6801
		c9.4901-23.4401,37.01-35.87,61.22-31.66c10.46,1.1801,20.58,4.51,30.17,8.77c1.47,0.9,2.61,0.5499,3.41-1.04
		c-10.39-11.21-22.36-22.52-25.91-37.99c-2.86-11.42,0.13-24.34,8.71-32.6c8.4-7.92,20.08-11.87,31.5-12.2
		c2.32-0.42,4.66-0.9,6.99-0.17c21.09,0.6,41.22,8.48,59.7,18.1799c20.67,11.1901,39.77,25.1001,57.51,40.4801
		c3.29,2.6599,7.92,5.98,5.94,10.87c-3.22,1.72-6.61,0.35-9.37-1.52c-11.96-6.63-25.13-11.42-38.78-12.88
		c-6.67-0.41-13.85-0.51-19.83,2.9199c-4.18,2.3301-6.6,7.0701-6.49,11.8c-0.28,5.88,3.24,11.09,7.33,14.99
		c6.93,6.64,15.47,11.2001,23.22,16.78c1.7,1.11,3.76,2.72,2.98,5.0699c-2.46,2.91-6.69,1.3301-9.79,0.6001
		c-18.08-5.76-37.02-11.5801-56.2-8.8401c-8.22,1.17-17.18,4.77-20.9399,12.7201c-3.73,8.0499-3.45,18.3199,1.72,25.7
		c5.48,7.61,15.12,10.16,23.94,11.37c17.13,1.1801,33.88-3.54,50.02-8.73c2.88-0.75,5.67-2.23,8.71-2.11
		c1.71-0.42,2.38,1.1,2.84,2.46c-1.12,2.91-4.09,4.35-6.45,6.11c-7.59,5.3-15.95,9.79-22.22,16.75c-3.72,3.99-5.9901,9.6-4.92,15.09
		c0.85,5.01,4.78,8.99,9.33,10.9701c6.55,2.8099,13.98,3.2699,20.92,1.7999c12.75-2.03,25.02-6.62,36.23-12.99
		c2.16-0.98,4.34-2.75,6.86-2.11c2.82,2.3101,0.83,6.28-1.56,8.0601c-19.86,17.6799-41.43,33.63-65.09,45.86
		c-17.93,9.0399-37.35,16.2-57.63,16.6799c-11.32,0.2001-23.21-1.89-32.56-8.63c-6.06-4.14-10.47-10.5299-12.45-17.5599
		c-1.9-6.73-1.3799-13.88,0.45-20.55c2.98-9.9299,9.41-18.3099,16.18-25.96c3.01-3.46,6.9901-6.21,8.95-10.47
		c-0.63-0.37-1.87-1.12-2.49-1.49c-17.19,7.21-36.34,12.9199-55.01,8.5099c-17.07-3.59-32.32-15.9099-37.84-32.6799
		c-6.35,17.26-23.27,28.89-41.08,31.62c-17.28,2.76-34.63-2.28-50.43-8.95c-1.56-1.17-3.62,0.7999-2.06,2.1799
		c10.94,11.21,22.75,23.5701,25.17,39.73c1.74,10.1901-0.82,21.26-7.86,29c-7.62,8.3201-18.91,12.2001-29.92,13.17
		c-18.4,1.4399-36.69-3.48-53.48-10.67c-28.4-12.35-53.67-30.8199-76.86-51.14c-1.69-1.5699-3.99-3.72-3.05-6.25
		c2.02-2.26,5.73-2.2799,8.29-1.01c10.64,6.27,22.36,10.7001,34.45,13.2101c8.23,1.63,17.32,2.4,25.01-1.61
		c3.26-1.5801,5.57-4.61,6.66-8.01c1.5-6.27-0.67-13.05-5.01-17.7101c-6.51-7.0599-15.07-11.6899-22.85-17.1499
		c-2.18-1.63-4.99-2.9801-5.74-5.8201c1.89-1.11,3.96-2.84,6.3-2.1899c8.1,1.8199,15.84,4.98,23.93,6.89
		c6.35,1.7599,12.87,2.73,19.37,3.71c10.24,0.4,21.23,0.77,30.34-4.72c6.35-3.4701,9.46-10.78,9.96-17.7001
		c0.31-7.0399-1.36-14.71-6.56-19.77c-4.81-4.6899-11.54-6.6699-18.03-7.59c-16.13-1.89-32.25,1.78-47.55,6.58
		c-4.66,1.27-9.19,3.4801-14.1,3.4701c-1.82,0.11-2.9-1.48-4.01-2.61c6.98-5.76,14.88-10.25,22.14-15.64
		c5.18-4.0901,10.48-8.89,12.07-15.5701c0.72-5.65-0.46-12.2799-5.4-15.74c-5.82-3.9399-13.21-4.15-19.97-3.76
		c-14.98,1.38-29.3,6.92-42.29,14.3401c-2.38,1.5399-6.51,1.5399-7.36-1.75c0.23-2.4901,2.67-3.8301,4.19-5.53
		C418.45,1525.04,434.5,1512.88,451.57,1502.33z"/>
	<path fill="#020202" stroke="#020202" stroke-width="0.0938" d="M1376.61,1479.23c4.0601-1.04,8.3101-0.59,12.4-1.53
		c3.6,0.6101,7.25,0.8101,10.91,0.8601c20.22,2.6299,39.34,10.6399,56.99,20.62c17.45,9.95,33.77,21.8099,49.09,34.7899
		c2.76,2.5801,5.95,4.7101,8.4399,7.6c1.38,1.63,1.9701,4.6101,0.05,6.0901c-1.97,1.7-4.79,0.65-6.75-0.4601
		c-8.6-5.0299-17.88-8.87-27.48-11.49c-8.39-2.23-17.21-3.46-25.84-2.0699c-4.55,0.83-9.28,2.86-11.7301,7
		c-3.4199,5.8199-2.1499,13.49,2.04,18.6c6.26,7.97,15.4401,12.73,23.5801,18.48c2.71,1.9601,6.96,3.64,6,7.77
		c-4.2301,2.04-8.77,0.25-12.91-1.01c-13.73-4.46-27.87-8.34-42.4-8.63c-7.95,0.13-16.28,0.8101-23.33,4.8301
		c-14,7.5599-14.4501,30.33-1.63,39.2599c5.2,3.91,11.74,5.1801,18.02,6.3c19.37,1.8201,38.1299-4.5599,56.36-10.27
		c1.9299-0.47,4.96-1.24,5.96,1.15c0.38,2-1.42,3.41-2.78,4.55c-8.23,6.09-17.53,10.8199-24.77,18.1699
		c-4.1599,4.15-7.0399,10.12-5.84,16.1c0.75,4.75,4.39,8.53,8.5701,10.64c6.97,3.3101,15.0399,3.65,22.5099,2.01
		c12.9501-2.11,25.3-7.0399,36.66-13.5299c2.03-1.27,5.92-2.9701,6.87,0.4199c0.8,3.92-3.09,6.3-5.53,8.62
		c-25.6599,22.2101-54.0299,42.25-86.23,53.6801c-18.48,6.13-39.33,9.6799-58,2.4199c-12.23-4.6499-22.33-16.63-21.6599-30.1699
		c-0.3-6.37,0.6899-12.77,3.5499-18.5c4.96-10.62,13.0801-19.3101,21.2001-27.5901c1.7699-1.3899,1.98-4.72-0.92-4.2599
		c-16.74,6.83-35.14,12.5-53.33,8.74c-16.9901-3.1801-32.5701-14.75-38.7301-31.16c-6.5699,16.5-22.7,27.65-39.8899,30.5699
		c-17.5601,3.12-35.27-2.0599-51.3601-8.7999c-1.5599-1.14-3.5599,0.85-2.0199,2.1899c7.63,7.8201,15.35,15.85,20.48,25.61
		c4.09,7.66,5.9299,16.5601,4.9,25.2001c-1.03,8.72-5.7001,17.01-12.8101,22.21c-8.08,6.09-18.3101,8.6-28.27,9.0601
		c-18.1799,0.6799-36.0599-4.51-52.54-11.79c-27.3099-12.29-51.75-30.11-74.1899-49.76c-1.55-1.42-3.33-2.91-3.78-5.04
		c-0.46-2.64,2.73-3.26,4.51-4.1899c3.38,0.71,6.1801,2.89,9.22,4.4299c11.1901,5.7101,23.3101,9.65,35.75,11.4501
		c5.24,0.1,10.7101,0.65,15.6801-1.4401c5.9301-1.7,10.5-7.6799,9.85-13.9299c0.14-6.41-3.78-12.0601-8.4-16.12
		c-7.01-6.1801-15.26-10.7001-22.75-16.2101c-1.38-0.97-2.23-2.46-3.12-3.7999c2.25-0.89,4.5-2.88,7.0701-2.0701
		c9.23,2.4,18.1899,5.77,27.52,7.8201c10.2799,2.49,20.9299,3.5599,31.49,2.58c6.99-1.12,14.4299-3.2,19.1699-8.8199
		c6.1901-8.12,6.4-19.8201,1.8-28.73c-3.64-6.8101-11.23-10.27-18.51-11.6001c-20.04-3.47-40,2.66-58.92,8.6901
		c-3.0599,0.85-7.95,2.09-9.39-1.8201c8.6001-7.75,19.64-12.4099,27.7401-20.7899c7.6-6.3101,9.0099-19.8,0.75-26.1
		c-6.1001-4.1201-13.87-4.17-20.9401-3.67c-14.66,1.5699-28.6899,7.01-41.41,14.3199c-2.1499,1.27-5.4299,1.54-6.9199-0.86
		c-1.17-2.88,2.25-4.53,3.7899-6.4199c14.78-13.2101,30.63-25.28,47.5-35.7001c17.14-10.5699,35.5701-19.45,55.28-23.97
		c6.86-1.29,13.75-2.71,20.77-2.3201c10.6899-0.58,21.8199,1.6801,30.71,7.8501c6.29,4.25,10.75,10.97,12.5701,18.3099
		c2.2899,9.39,0.78,19.53-3.51,28.14c-5.17,10.55-13.5701,18.97-21.53,27.41c-0.65,2.9299,3.41,2.88,5.21,1.8199
		c11.8501-5.27,24.6001-8.46,37.53-9.4099c14.8101,0.1299,30.1801,4.9099,40.75,15.7c4.74,4.72,8.26,10.5699,10.46,16.89
		c3.4701-6.8101,7.76-13.25,13.76-18.1c8.0801-6.88,18.29-11.15,28.76-12.66c9.16-1.97,18.5801-0.33,27.61,1.5699
		c7.92,1.66,15.4,4.8201,22.88,7.8301c0.39-0.41,1.17-1.24,1.5701-1.66c-7.3201-8.02-15.3-15.65-20.72-25.17
		c-4.15-6.88-6.51-14.89-5.8501-22.95c-0.5199-8.6901,3.76-17.02,9.8401-22.98C1360.27,1484.28,1368.37,1480.88,1376.61,1479.23z"/>
	<path fill="#020202" stroke="#020202" stroke-width="0.0938" d="M1760.9399,1485.29c10.01-3.73,20.4301-6.4,31.04-7.73
		c9.65-0.2101,19.61-0.8401,28.8201,2.6799c7.97,2.73,15.38,7.96,19.4399,15.48c5.67,10.12,5.21,22.8101,0.83,33.3201
		c-5.1,12.01-14.4399,21.4399-23.3899,30.6499c1.1499,1.5801,3.0299,2.55,4.97,1.5901c8.8199-3.77,18-6.8101,27.48-8.42
		c6.13-0.77,12.35-2.11,18.52-0.75c12.75,1.21,25.2999,6.71,34.11,16.14c6.66,7.29,11.26,16.8101,11.53,26.79
		c0.26,7.84,0.48,16.0499-2.89,23.35c-6.7001,16.34-23.22,26.9399-40.28,29.62c-17.28,2.74-34.62-2.36-50.42-9.03
		c-1.5399-1.11-3.51,0.88-1.97,2.1901c7.9301,8.1899,16.03,16.5499,21.13,26.89c5.33,10.6799,6.4301,24,0.99,34.86
		c-5.23,10.59-16.38,16.99-27.66,19.14c-17.5,3.4099-35.5299-0.29-52.0499-6.25c-31.67-11.91-59.54-31.9801-84.85-54.1001
		c-2-1.5299-3.39-3.64-4.2201-5.97c2.3-2.64,6.37-3.3199,9.39-1.5c12.39,7.33,26.3101,12.01,40.52,14.16
		c5.48,0.2,11.1801,0.5399,16.3301-1.73c5.2899-1.74,9.47-6.9401,9.21-12.61c0.4-5.9801-2.6-11.7101-6.87-15.7101
		c-6.36-6.1899-14.17-10.5599-21.39-15.61c-2.35-1.75-5.99-3.35-5.0701-6.87c2.6001-0.4399,5.25-1.77,7.88-0.6
		c14.38,4.2999,28.8,9.23,43.88,10.22c9.3201,0.36,19.2101,0.15,27.4601-4.8099c6.62-3.6101,9.85-11.3601,10.01-18.6101
		c0.2699-7.0199-1.7201-14.5699-7.05-19.4299c-6.36-5.5701-15.12-7.23-23.33-7.48c-16.2001-0.7001-31.99,3.8199-47.25,8.75
		c-3.98,1.26-8.51,2.87-12.3401,0.2899c1.1101-3.23,4.3501-4.73,6.9501-6.59c7.8099-5.5,16.49-10.1,22.73-17.53
		c5.91-6.34,6.22-17.8099-0.58-23.61c-5.8601-4.4-13.63-4.5499-20.63-4.15c-15.3201,1.37-29.8301,7.3101-43.13,14.79
		c-2.5801,1.77-7.8301-0.47-5.9301-3.86c3.8-4.6899,8.89-8.09,13.3-12.17C1708.8101,1512.53,1733.42,1495.73,1760.9399,1485.29z"/>
	<path fill="#020202" stroke="#020202" stroke-width="0.0938" d="M311.62,1556.38c3.35-1.11,6.9-0.92,10.38-0.97
		c20.43-1.35,38.66,15.98,41.63,35.6599c3.47,17.65-5.44,36.64-20.94,45.62c-14.13,8.6901-33.22,7.77-46.76-1.6699
		c-9.95-6.85-17.36-17.87-18.62-30.01c-0.19-6.4401-0.52-13.11,1.85-19.23C283.89,1571.17,296.81,1559.97,311.62,1556.38z"/>
	<path fill="#020202" stroke="#020202" stroke-width="0.0938" d="M951.25,1556.77c8.15-0.6801,16.78-1.0801,24.35,2.63
		c17.67,7.52,28.25,27.76,25.32,46.59c-2.5,19.72-19.99,36.46-39.91,37.5601c-16.33,1.37-32.89-7.3401-41.14-21.4601
		c-9.97-16.26-6.87-39.12,7.02-52.1799C933.19,1562.84,942.16,1558.85,951.25,1556.77z"/>
	<path fill="#020202" stroke="#020202" stroke-width="0.0938" d="M1585.0699,1557.97c0.4301-0.36,1.3-1.08,1.7301-1.4399
		c5.08,0,10.1699-0.3201,15.25,0.02c18.01,2.75,32.49,18.59,34.86,36.46c3.0599,17.6899-6.23,36.4299-21.86,45.1
		c-14.5,8.47-33.8101,7.05-47.2001-2.95c-8.85-6.4301-15.22-16.27-17.2-27.05c-1.0701-8.95-0.62-18.45,3.8199-26.51
		C1560.54,1569.92,1571.62,1559.66,1585.0699,1557.97z"/>
	<path fill="#020202" stroke="#020202" stroke-width="0.0938" d="M260.68,1680.66c1.92-2.27,4.67-3.63,7.68-3.3301
		c0.58,2.1901,1.04,4.66-0.3,6.7201c-5.94,10.21-10.43,21.2999-13,32.84c-1.54,7.38-2.36,15.15-0.45,22.5499
		c1.26,5.0701,4.61,9.75,9.47,11.9c3.84,0.7001,7.85,0.63,11.69-0.01c6.31-2.8999,10.62-8.6499,14.58-14.12
		c4.36-6.4099,8.31-13.13,13.49-18.9399c4.36-0.05,3.47,5.48,2.55,8.33c-5.85,18.47-12.04,37.77-9.23,57.39
		c1.12,8.35,4.98,17.0601,12.75,21.15c5.67,3.61,12.63,2.46,18.98,2.36c6.27-1.3101,11.5-6.23,13.98-12.05
		c3.78-8.6399,3.94-18.24,3.41-27.49c-1.18-12-4.27-23.71-8.01-35.14c-1.03-3.5299-2.51-7.0299-2.56-10.73
		c0.46-2.14,2.72-2.7799,4.28-3.9c5.58,6.2201,9.43,13.7301,14.5,20.3401c4.14,5.53,9.04,11.12,15.86,13.26
		c5.81,2.1799,12.91-0.17,16.07-5.5701c3.23-6.53,3.45-14.0399,2.74-21.14c-1.93-14.4099-7.09-28.2999-14.39-40.83
		c-1.15-1.72-0.43-3.8101-0.36-5.6801c1.64-0.5099,3.29-1.3899,5.07-1.08c2.44,1.1,4.01,3.35,5.72,5.3201
		c13.64,15.6599,26.21,32.3199,36.76,50.23c8.7,14.9299,16.1,30.7899,20.19,47.64c2.72,11.5399,3.94,23.6399,1.85,35.3999
		c-1.48,8.1901-4.88,16.1901-10.61,22.3101c-6.23,6.61-15.36,10.1799-24.39,10.0699c-9.08,0.16-17.93-3.0499-25.46-7.98
		c-8.01-5.14-14.81-11.86-21.66-18.38c-1.14,0.37-2.27,1.24-1.39,2.52c6.04,14.65,11.03,30.37,9.62,46.42
		c-1.52,16.22-9.85,32.3999-24.04,40.99c-16.74,10.21-40.21,9.08-55.12-3.99c-14.32-12.27-20.63-32.4301-17.68-50.8201
		c1.2-10.5699,4.74-20.7,8.85-30.45c0.91-1.64,0.16-3.4501-0.11-5.1c-5.46,3.87-9.83,9.08-15.12,13.2
		c-7.3,5.92-15.6,11.09-24.97,12.84c-9.83,1.9301-20.68,0.3301-28.74-5.89c-9.22-7.08-13.96-18.6799-14.87-30.0299
		c-1.89-20.65,4.46-41.03,13.11-59.5601C223.98,1725.98,241.49,1702.42,260.68,1680.66z"/>
	<path fill="#020202" stroke="#020202" stroke-width="0.0938" d="M899.22,1680.3101c1.59-1.78,6.08-3.39,6.72-0.0701
		c0.83,3.73-2.29,6.8201-3.73,10.03c-5.7401,11.15-9.97,23.22-11.42,35.71c-0.53,6.28-0.38,12.9501,2.48,18.72
		c2.73,5.3301,8.58,9.52,14.76,8.79c5.6899-0.37,10.35-4.29,14-8.37c5.78-6.39,9.92-14.02,14.92-20.99
		c1.55-2.24,3.75-3.87,6.12-5.15c1.03,2.41,1.48,5.1,0.58,7.66c-2.64,9.3099-5.98,18.45-7.83,27.98
		c-2.53,12.49-3.78,25.84,0.29,38.15c2.35,7.47,8.54,13.47,16.08,15.58c3.6,0.4601,7.24,0.35,10.87,0.29
		c7.1,0.21,13.33-5.04,16.4-11.13c4.17-8.87,4.38-18.92,3.85-28.52c-1.24-13.33-5-26.24-9.18-38.9
		c-1.3-3.3199-1.08-6.9099-0.44-10.33c1.25-0.12,2.52-0.2,3.8-0.26c6.94,8.5,11.83,18.5699,19.51,26.49
		c3.44,3.34,7.57,6.92,12.68,6.78c4.16,0.08,9.05,0.52,11.9-3.1901c5.32-6.12,5.1099-14.97,4.73-22.6
		c-1.5701-13.0499-5.9401-25.6799-12.0101-37.2999c-1.43-2.9-4.19-5.78-2.91-9.2401c1.87-2.86,6.13-2.59,8.02,0.1101
		c23.03,26.21,44.11,55.09,55.97,88.2c4.2,11.95,6.78,24.55,6.73,37.25c-0.24,10.5601-2.5499,21.52-9,30.13
		c-4.74,6.66-12.1899,11.1801-20.1899,12.6801c-9.02,1.6399-18.49,0.0299-26.63-4.0901c-9.0001-4.52-16.58-11.3099-23.78-18.24
		c-1.63-1.4399-3.11-4.0599-5.59-2.72c4.21,10.88,8.51,21.89,9.86,33.58c2.15,14.99-1.23,30.92-10.26,43.1901
		c-7.72,10.7-20.21,18.3099-33.54,18.7899c-7.6,0.25-15.5,0.3201-22.61-2.7599c-15.33-6.1101-26.04-20.91-29.38-36.8
		c-3.64-16.3201,0.56-33.21,6.69-48.38c0.89-2.58,2.99-5.45,1.32-8.14c-0.39,0.0701-1.16,0.1901-1.54,0.26
		c-6.64,6.37-13.32,12.8199-21.08,17.84c-7.47,5.01-16.33,8.1801-25.39,8.0901c-8.81,0.1499-17.75-3.13-23.98-9.4501
		c-7-7.01-10.65-16.78-11.62-26.51c-0.5-10.1-0.32-20.33,2.29-30.1599c7.39-30.26,24.52-57.02,43.2-81.53
		C886.87,1694.53,892.54,1686.95,899.22,1680.3101z"/>
	<path fill="#020202" stroke="#020202" stroke-width="0.0938" d="M1532.83,1682.77c2.14-2.38,4.91-5.38,8.4701-4.17
		c2.49,3.8101-1.02,7.6801-2.67,11.04c-6.61,12.79-11.64,26.85-12,41.37c-0.3,8.16,2.48,17.59,10.47,21.28
		c5.23,0.74,11.41,1.4399,15.73-2.3c8.9501-7.1,13.9701-17.65,20.65-26.67c1.36-1.6799,2.87-3.58,5.09-4.09
		c2.9601,2.47,1.28,6.7001,0.5,9.8301c-5.75,17.8799-11.46,36.62-8.83,55.61c1.05,8.4199,4.89,17.2,12.67,21.4099
		c5.63,3.7001,12.62,2.49,18.98,2.42c8.62-1.67,14.4-9.71,16.08-17.95c4.0801-17.6901-0.1599-35.9801-5.39-52.9601
		c-1.4399-5.25-4.23-10.46-3.2-16.0399c1.12-0.9301,2.38-1.67,3.63-2.4301c4.75,5.04,8.04,11.22,12.04,16.84
		c4.51,6.3401,9.38,13.11,16.8099,16.2201c4.66,2.21,10.65,1.85,14.65-1.5801c4.08-3.26,5.24-8.72,5.87-13.62
		c1.15-18.61-5.97-36.64-14.9-52.61c-0.8099-1.8099,0.0801-3.8,0.25-5.63c2.4401-0.13,5.42-0.97,7.21,1.29
		c14.3601,15.9299,27.4501,33.0699,38.6001,51.4099c13.1,22.05,24.09,46.5,24.6499,72.5601c0.17,13.6899-3.5099,28.65-14.35,37.84
		c-10.21,8.7201-25.26,9.4501-37.39,4.7001c-12.4199-4.88-22.0299-14.5-31.5199-23.51c-1.04,0.5499-2.28,1.23-1.3401,2.5599
		c5.23,12.53,9.53,25.73,9.86,39.4301c0.3601,14.25-4.47,28.75-14,39.4399c-7.76,8.5601-18.8199,14.48-30.48,14.8401
		c-7.0399,0.22-14.3199,0.4199-20.99-2.17c-15.9199-5.5699-27.14-20.5601-30.77-36.6901c-3.86-16.47,0.3-33.5699,6.48-48.9299
		c0.92-2.64,3.05-5.6,1.3401-8.34c-2.3101,0.13-3.48,2.4099-5.1,3.74c-9.05,8.65-18.92,17.2799-31.17,20.88
		c-11.29,3.2999-24.47,1.86-33.63-5.9301c-9.96-8.48-14.21-22.0699-13.9-34.83c-0.6799-19.01,5.66-37.4301,13.61-54.42
		C1497.17,1727.05,1514.14,1704.01,1532.83,1682.77z"/>
	<path fill="#020202" stroke="#020202" stroke-width="0.0938" d="M455.12,1725.51c2.06-0.45,3.78,0.98,5.45,1.97
		c36.38,24.6,72.91,48.99,109.12,73.84c4.76,3.2001,8.37,8.77,7.58,14.6901c-1.04,6.51-5.94,11.41-10.66,15.61
		c-4.57,4.11-10.22,7.9401-16.62,7.7c-4.74-0.21-8.63-3.2699-11.63-6.6699c-24.89-26.8101-49.29-54.05-73.71-81.28
		c-4.92-5.75-10.24-11.1801-14.83-17.21C447.28,1730.21,451.53,1726.5,455.12,1725.51z"/>
	<path fill="#020202" stroke="#020202" stroke-width="0.0938" d="M1086.53,1729.45c1.6-0.95,3.1699-1.96,4.86-2.75
		c2.23-0.84,4.37,0.5,6.1799,1.7301c35.2001,23.7599,70.4801,47.3899,105.54,71.36c4.39,2.83,9.08,6.13,10.62,11.4199
		c2.25,6.2101-1.3199,12.5601-5.51,16.98c-4.9199,4.9901-10.36,10.15-17.39,11.79c-4.87,1.1901-10.0499-0.7999-13.4399-4.34
		c-5.62-5.75-10.9501-11.75-16.42-17.63c-24.4199-26.91-48.95-53.74-72.83-81.13C1085.95,1734.9399,1085.96,1732.08,1086.53,1729.45
		z"/>
	<path fill="#020202" stroke="#020202" stroke-width="0.0938" d="M1722.53,1729.5c2.87-1.8101,6.58-4.59,9.85-1.86
		c35.09,23.5599,70.17,47.14,105.08,70.98c3.28,2.29,6.87,4.3101,9.48,7.4401c3.1101,3.6599,4.4901,8.98,2.8,13.59
		c-1.98,5.51-6.3099,9.72-10.64,13.49c-4,3.47-8.73,6.5699-14.12,7.13c-4.87,0.47-9.4399-2.14-12.5699-5.6801
		c-16.16-17.1899-31.86-34.7999-47.74-52.25c-13.6901-15.3099-27.5601-30.47-40.9301-46.0499
		C1721.8,1734.48,1722.21,1731.8199,1722.53,1729.5z"/>
	<path fill="#020202" stroke="#020202" stroke-width="0.0938" d="M186.12,1727.64c2.79-0.27,7.25-1.8101,8.24,1.9
		c1.37,2.99-0.59,6.0499-2.63,8.1699c-24.56,28.0701-49.76,55.5901-74.8,83.24c-4.78,4.89-9.07,10.25-14.03,14.9601
		c-3.97,3.8199-10.04,5.46-15.25,3.34c-7.16-2.77-13.1-8.24-17.5-14.4301c-3.57-4.8199-4.52-12.2799-0.43-17.0499
		c2.1-2.99,5.16-5.05,8.11-7.09c32.3-22.0801,64.83-43.8301,97.25-65.75C178.8,1732.55,182.29,1729.83,186.12,1727.64z"/>
	<path fill="#020202" stroke="#020202" stroke-width="0.0938" d="M824.31,1728c4.48-2.75,9.38,2.99,6.95,7.27
		c-2.54,3.99-6.04,7.28-9.06,10.91c-25.38,28.61-51.05,56.95-76.89,85.13c-3.4,3.6-6.7,7.84-11.67,9.2799
		c-5.41,1.74-11.06-0.72-15.46-3.7899c-5.14-3.8301-10.03-8.39-12.81-14.26c-1.64-3.11-1.33-6.74-0.84-10.0701
		c2.05-4.7,6.08-8.09,10.3-10.7899c34.11-23.28,68.39-46.29,102.62-69.38C819.69,1730.79,821.9,1729.22,824.31,1728z"/>
	<path fill="#020202" stroke="#020202" stroke-width="0.0938" d="M1459.12,1728.66c2.8-0.26,7.26-1.9,8.35,1.8199
		c1.5601,3.64-1.37,6.85-3.63,9.37c-26.97,30.66-54.48,60.8301-82,90.99c-3.62,3.78-7.0499,8.3201-12.33,9.8
		c-5.61,1.72-11.4-1.03-15.88-4.27c-5.55-4.4-11.15-9.6-13.2-16.6c-0.4-3.29-0.66-7.05,1.5299-9.79
		c3.49-5.29,9.25-8.3099,14.27-11.91C1390.42,1774.78,1424.72,1751.61,1459.12,1728.66z"/>
</g>
</svg>
