<?xml version="1.0" encoding="UTF-8" standalone="no"?>
<!-- Created with Inkscape (http://www.inkscape.org/) -->
<svg xmlns:inkscape="http://www.inkscape.org/namespaces/inkscape" xmlns:rdf="http://www.w3.org/1999/02/22-rdf-syntax-ns#" xmlns="http://www.w3.org/2000/svg" xmlns:xlink="http://www.w3.org/1999/xlink" xmlns:ns1="http://sozi.baierouge.fr" xmlns:cc="http://creativecommons.org/ns#" xmlns:sodipodi="http://sodipodi.sourceforge.net/DTD/sodipodi-0.dtd" xmlns:dc="http://purl.org/dc/elements/1.1/" id="svg2" xml:space="preserve" viewBox="0 0 417.16 130.22" version="1.1" inkscape:version="0.91 r13725">
  <g id="g10" transform="matrix(1.25 0 0 -1.25 0 130.22)">
    <g id="g12">
      <path id="path14" style="fill-rule:evenodd;fill:#1f2433" d="m108.74 102.56c0.617 0.242 1.442-0.266 2.481-1.52 1.066-1.277 1.601-2.453 1.601-3.519 0-0.879-0.453-1.188-1.359-0.918-1.098 0.531-1.84 0.839-2.242 0.918-0.696 0.132-1.176 0.906-1.438 2.32-0.297 1.441 0.024 2.348 0.957 2.719z" inkscape:connector-curvature="0"/>
      <path id="path16" style="fill-rule:evenodd;fill:#1f2433" d="m298.34 88.722c-2.028 1.574-3.828 3.363-5.399 5.363-1.949 2.398-2.187 3.637-0.722 3.719 6.293 0.293 11.402 0.226 15.32-0.199 2.16-0.243 3.856-1.68 5.082-4.321 0.453-0.933 1.09-3.039 1.918-6.32 0.293-1.199-0.094-1.934-1.16-2.199-1.652-0.43-2.801-1-3.438-1.723-0.961-1.094-2.789-0.773-5.48 0.961-0.188 0.133-2.227 1.707-6.121 4.719z" inkscape:connector-curvature="0"/>
      <path id="path18" style="fill-rule:evenodd;fill:#1f2433" d="m292.1 77.765c1.199 2.48 2.984 2.945 5.359 1.398 1.84-1.199 3.027-2.48 3.559-3.84 0.242-0.586 0.148-1.492-0.282-2.718-0.398-1.176-0.906-2.11-1.519-2.801-0.957-1.067-1.746-1.801-2.36-2.199-1.117-0.696-2.105-0.747-2.961-0.161-1.066 0.747-1.824 2.172-2.277 4.278-0.535 2.297-0.375 4.308 0.481 6.043z" inkscape:connector-curvature="0"/>
      <path id="path20" style="fill-rule:evenodd;fill:#1f2433" d="m232.74 72.245c-0.984-1.414-2.25-2.281-3.797-2.601-1.574-0.321-2.961 0.05-4.16 1.121-1.734 1.519-1.308 4.863 1.278 10.039 0.586 1.148 1.64 1.719 3.16 1.719 1.148 0 2.469-0.305 3.961-0.918 1.121-0.454 1.613-1.735 1.48-3.84-0.133-2.028-0.773-3.867-1.922-5.52z" inkscape:connector-curvature="0"/>
      <path id="path22" style="fill-rule:evenodd;fill:#1f2433" d="m106.82 95.124c1.946 1.625 3.973 1.238 6.078-1.16 1.977-2.266 2.668-4.199 2.082-5.801-0.535-1.492-1.679-3.078-3.441-4.762-1.945-1.89-3.758-2.945-5.437-3.156-1.364-0.187-2.176 0.559-2.442 2.238-0.348 2.348-0.734 3.762-1.16 4.239-0.828 0.933-0.52 2.453 0.922 4.562 1.012 1.52 2.144 2.801 3.398 3.84z" inkscape:connector-curvature="0"/>
      <path id="path24" style="fill-rule:evenodd;fill:#1f2433" d="m137.06 81.925c1.414-1.414 2.48-3.188 3.203-5.32 0.773-2.375 0.984-4.922 0.636-7.641-0.371-3.039-0.933-5.309-1.679-6.801-0.824-1.707-2.106-2.961-3.84-3.762-2.051-0.957-4.547-1.679-7.481-2.156-3.359-0.562-6.144-0.562-8.359 0-1.918 0.477-3.332 1.985-4.238 4.52-1.52 4.16-2.348 6.332-2.481 6.519-0.879 1.414-1.32 2.946-1.32 4.598 0 1.922-0.199 3.348-0.602 4.281-0.613 1.414-0.093 3.133 1.563 5.16 0.879 1.121 2.199 2.52 3.961 4.2 1.703 1.921 5.293 2.187 10.758 0.8 4.906-1.254 8.199-2.718 9.879-4.398z" inkscape:connector-curvature="0"/>
      <path id="path26" style="fill-rule:evenodd;fill:#1f2433" d="m103.86 75.284c0.641 0.211 1.414-0.148 2.321-1.082 0.933-0.933 1.492-1.972 1.679-3.117 0.082-0.375 0.547-2.227 1.403-5.562 0.746-2.907 1.199-5.067 1.359-6.481 0.16-1.519-0.668-2.117-2.48-1.797-2.348 0.746-4.055 1.266-5.121 1.559-1.387 0.375-2.161 1.426-2.321 3.16-0.027 0.266 0.039 2.105 0.199 5.519 0.11 2.348 0.336 4.055 0.68 5.122 0.457 1.437 1.215 2.332 2.281 2.679z" inkscape:connector-curvature="0"/>
      <path id="path28" style="fill-rule:evenodd;fill:#1f2433" d="m118.1 91.284c0.664 0.321 1.425 0.16 2.277-0.48 0.746-0.559 1.266-1.199 1.562-1.922 0.211-0.531-0.015-0.785-0.679-0.758-0.535 0.027-1.188 0.199-1.961 0.52-0.801 0.32-1.375 0.707-1.723 1.16-0.476 0.586-0.305 1.078 0.524 1.48z" inkscape:connector-curvature="0"/>
      <path id="path30" style="fill-rule:evenodd;fill:#1f2433" d="m162.06 78.401c0.586-0.316 0.8-1.304 0.64-2.957-0.133-1.679-0.613-2.535-1.437-2.562-0.723-0.024-1.227 0.309-1.524 1-0.238 0.934-0.465 1.629-0.679 2.082-0.321 0.664-0.039 1.32 0.839 1.961 0.856 0.637 1.575 0.797 2.161 0.476z" inkscape:connector-curvature="0"/>
      <path id="path32" style="fill-rule:evenodd;fill:#1f2433" d="m280.26 78.562c0.558-2.774-0.387-6.079-2.84-9.918-2.563-4-5.402-6.188-8.524-6.559-3.543-0.43-7.199 0.012-10.957 1.316-4.132 1.442-6.972 3.524-8.519 6.243-1.309 2.32-0.922 4.679 1.16 7.078 0.586 0.668 1.586 1.679 3 3.043 1.227 1.277 2.106 2.426 2.641 3.437 1.199 2.266 2.371 3.883 3.519 4.84 0.719 0.613 1.758 1.137 3.117 1.563 0.852 0.265 2.387 0.253 4.602-0.043 4.426-0.559 6.734-0.852 6.918-0.879 2.32-0.215 3.801-1.121 4.441-2.719 0.426-1.094 0.907-3.563 1.442-7.402z" inkscape:connector-curvature="0"/>
      <path id="path34" style="fill-rule:evenodd;fill:#1f2433" d="m185.22 71.245c0.347-0.508 0.574-1.137 0.679-1.883 0.137-0.961-1.132-1.625-3.796-2-2.668-0.343-4.309-0.105-4.922 0.723-0.985 1.41 0.215 2.773 3.601 4.078 2.106 0.746 3.586 0.442 4.438-0.918z" inkscape:connector-curvature="0"/>
      <path id="path36" style="fill-rule:evenodd;fill:#1f2433" d="m211.82 77.644c0.215-0.696-0.215-1.95-1.281-3.762-1.066-1.758-2.144-3.078-3.238-3.957-1.496-1.203-5.082-2.481-10.762-3.84-1.785-0.402-3.574-0.121-5.359 0.84-1.84 1.012-3.227 2.519-4.16 4.519-0.774 1.653-0.747 2.774 0.082 3.36 0.48 0.347 1.293 0.867 2.437 1.558 0.481 0.668 1.188 1.2 2.121 1.602 1.945 0.801 3.254 1.371 3.918 1.719 1.442 0.773 2.641 0.949 3.602 0.519 2.105-0.933 3.281-1.426 3.519-1.48 0.906-0.184 2.813-0.293 5.719-0.321 2.109 0 3.242-0.25 3.402-0.757z" inkscape:connector-curvature="0"/>
      <path id="path38" style="fill-rule:evenodd;fill:#1f2433" d="m201.02 65.003c0.878 0.242 2.253 0.668 4.121 1.281 1.547 0.426 2.597 0.492 3.16 0.199 0.719-0.375 1.172-1.519 1.359-3.441 0.211-2.133-0.348-3.586-1.68-4.359-1.281-0.746-2.585-0.852-3.921-0.321-1.653 0.934-3.028 1.641-4.118 2.121-1.519 0.696-2.082 1.536-1.683 2.52 0.375 0.906 1.297 1.574 2.762 2z" inkscape:connector-curvature="0"/>
      <path id="path40" style="fill-rule:evenodd;fill:#1f2433" d="m194.78 90.042c-0.773-1.891-2.109-3.598-4-5.117-2.32-1.84-5.226-3.254-8.722-4.242-3.438-0.961-6.637-1.293-9.598-1-4.961 0.535-6.402 3.679-4.32 9.441 0.828 2.266 2.054 4.438 3.679 6.52 1.629 2.078 3.176 3.48 4.641 4.199 0.426 0.215 1.359 0.586 2.801 1.121 1.172 0.426 2.078 0.84 2.718 1.238l0.641 0.442c0.984 0.668 1.559 1.039 1.719 1.121 0.64 0.32 1.32 0.453 2.039 0.398 2.215-0.133 4.441-0.894 6.683-2.281 2.637-1.652 3.731-3.531 3.278-5.637-0.695-3.281-1.211-5.347-1.559-6.203z" inkscape:connector-curvature="0"/>
      <path id="path42" style="fill-rule:evenodd;fill:#1f2433" d="m253.7 84.085c-0.238-0.641-0.547-1.297-0.918-1.961-0.746-1.308-1.441-2.027-2.082-2.16-0.691-0.16-1.027 0.199-1 1.078 0 0.508 0.188 1.586 0.563 3.242 0.265 1.145 0.867 1.586 1.797 1.321 0.882-0.27 1.429-0.774 1.64-1.52z" inkscape:connector-curvature="0"/>
      <path id="path44" style="fill-rule:evenodd;fill:#1f2433" d="m42.859 81.362c0.188 0.961 0.481 1.907 0.879 2.84 0.457 1.067 1.403 1.668 2.84 1.801 0.856 0.082 2.281 0.055 4.281-0.078 1.629-0.027 3.254-0.762 4.879-2.203 1.149-0.985 1.883-1.84 2.203-2.559 0.133-0.215 0.039-0.773-0.281-1.68-0.586-1.734-0.933-2.761-1.039-3.082-0.535-1.863-2.723-3.222-6.562-4.078-2.614-0.535-5.426-0.734-8.438-0.601-1.094 0.027-1.453 0.679-1.082 1.961 0.723 1.785 1.227 3.215 1.52 4.281 0.214 0.773 0.48 1.906 0.8 3.398z" inkscape:connector-curvature="0"/>
      <path id="path46" style="fill-rule:evenodd;fill:#1f2433" d="m198.78 90.483c0.348 0.829 1.559 0.84 3.641 0.04 0.211-0.079 1.812-0.84 4.797-2.278 1.601-0.801 3.109-1.75 4.519-2.844 1.707-1.332 2.121-2.105 1.242-2.316-3.574-0.934-6.761-1.523-9.558-1.762-1.414-0.105-2.777 0.614-4.082 2.16-0.508 0.614-1.36 1.907-2.559 3.879-0.453 0.746-0.375 1.282 0.239 1.602 0.933 0.48 1.519 0.984 1.761 1.519z" inkscape:connector-curvature="0"/>
      <path id="path48" style="fill-rule:evenodd;fill:#1f2433" d="m5.578 44.124c-1.066-1.601-2.293-1.867-3.68-0.801-1.066 0.828-1.691 1.68-1.878 2.559-0.079 0.402 0.082 1 0.48 1.801 0.398 0.773 0.84 1.375 1.32 1.8 1.758 1.602 3.012 2.094 3.758 1.481 0.617-0.508 0.949-1.469 1-2.879 0.082-1.523-0.25-2.84-1-3.961z" inkscape:connector-curvature="0"/>
      <path id="path50" style="fill-rule:evenodd;fill:#1f2433" d="m33.578 68.323-1.078-1.078c-1.414-1.254-3.895-2.777-7.441-4.562-0.879-0.481-1.825-0.825-2.84-1.039l-0.039 0.039c-1.121-0.239-2.426-0.305-3.918-0.2-0.856 0.079-2.496 0.293-4.922 0.641-2.641 0.371-5.254 1.399-7.84 3.078-1.227 0.828-2.254 1.656-3.078 2.481-0.563 0.613-0.828 2.265-0.801 4.961 0.024 4.293 0.024 6.601 0 6.918 6.719-3.571 6.719-3.559 0 0.043h-0.043l-0.117 1.199c-0.242 1.519 0.492 2.867 2.199 4.039 2 1.066 3.254 1.828 3.762 2.281h0.078l0.281 0.32c0.321 0.559 1.067 1.106 2.239 1.641 1.492 0.691 2.32 1.094 2.48 1.199 0.508 0.371 1.188 0.559 2.039 0.559 0.481 0 1.387-0.106 2.723-0.32 0.879-0.133 1.863 0.015 2.957 0.441 0.668 0.238 1.679 0.691 3.043 1.359 0.453 0.188 0.984 0.305 1.597 0.36 0.668 0 1.453-0.172 2.36-0.52 0.215-0.078 1.203-0.508 2.961-1.281 1.414-0.613 2.718-1.52 3.922-2.719l0.32-0.32c1.652-1.758 2.957-3.852 3.918-6.281 0.828-2.161 1.121-3.774 0.879-4.84l-0.117-0.438c-0.536-1.867-2.375-4.519-5.524-7.961z" inkscape:connector-curvature="0"/>
      <path id="path52" style="fill-rule:evenodd;fill:#1f2433" d="m10.941 41.042c-0.402-0.773-1.027-0.707-1.882 0.203-0.293 0.293-0.481 0.692-0.559 1.199 0 0.106-0.066 1.012-0.199 2.719-0.106 1.309 0.039 2.106 0.437 2.399 0.403 0.293 0.867 0.054 1.403-0.719 0.613-0.852 1.011-1.746 1.199-2.68 0.238-1.121 0.105-2.16-0.399-3.121z" inkscape:connector-curvature="0"/>
      <path id="path54" style="fill-rule:evenodd;fill:#1f2433" d="m289.94 83.042c0.344-0.238 0.067-0.707-0.843-1.398-0.907-0.696-1.664-1.039-2.278-1.039-0.722-0.028-1.336 0.117-1.84 0.437-0.585 0.375-0.75 0.84-0.48 1.402 0.32 0.559 1.133 0.918 2.438 1.079 1.308 0.132 2.308-0.028 3.003-0.481z" inkscape:connector-curvature="0"/>
      <path id="path56" style="fill-rule:evenodd;fill:#1f2433" d="m261.46 41.003c0.934 0.773 2.199 1.348 3.801 1.719 1.707 0.402 2.89 0.293 3.558-0.321 1.039-0.929 2.067-4.078 3.078-9.437 0.297-1.602-0.519-3.879-2.437-6.84-1.469-2.242-3.332-4.535-5.602-6.883-1.519-1.597-2.812-2.277-3.879-2.039-0.585 0.16-1.253 0.735-2 1.719-0.375 0.508-0.8 1.441-1.281 2.801-0.719 2.054-1.238 3.453-1.558 4.199-0.563 1.336-0.668 2.414-0.321 3.242 0.668 1.121 1.227 2.238 1.68 3.36 0.961 2.398 1.641 3.96 2.039 4.679 0.828 1.574 1.801 2.84 2.922 3.801z" inkscape:connector-curvature="0"/>
      <path id="path58" style="fill-rule:evenodd;fill:#1f2433" d="m256.3 14.964c0.801-3.414-0.028-5.469-2.481-6.16-1.254-0.348-3.812-0.293-7.679 0.16-1.735 0.215-3.707 0.613-5.922 1.199-2.266 0.613-4.106 1.016-5.52 1.199-1.812 0.266-2.531 0.84-2.16 1.723 0.934 1.359 1.496 2.543 1.684 3.559 0.183 2.078 0.316 3.586 0.398 4.519 0.16 1.653 0.613 2.735 1.359 3.238 4.106 2.801 8.36 2.95 12.762 0.442 4.024-2.293 6.543-5.586 7.559-9.879z" inkscape:connector-curvature="0"/>
      <path id="path60" style="fill-rule:evenodd;fill:#1f2433" d="m232.58 36.523c0.617 0.613 1.934 0.507 3.961-0.321 2.082-0.824 2.973-1.758 2.68-2.801-0.239-0.929-0.852-1.449-1.84-1.558-1.281 0.027-2.25 0-2.918-0.078-0.934-0.11-1.641 0.504-2.121 1.84-0.453 1.332-0.371 2.304 0.238 2.918z" inkscape:connector-curvature="0"/>
      <path id="path62" style="fill-rule:evenodd;fill:#1f2433" d="m135.38 23.523c1.867 1.519 3.773 1.132 5.723-1.161 1.863-2.183 2.503-4.039 1.918-5.558-0.532-1.414-1.653-2.906-3.36-4.481-1.867-1.761-3.586-2.734-5.16-2.922-1.305-0.156-2.066 0.563-2.281 2.161-0.321 2.214-0.68 3.562-1.078 4.043-0.774 0.906-0.469 2.347 0.918 4.32 1.015 1.437 2.121 2.637 3.32 3.598z" inkscape:connector-curvature="0"/>
      <path id="path64" style="fill-rule:evenodd;fill:#1f2433" d="m134.9 38.562c0.59 0.214 1.364-0.278 2.321-1.477 1.015-1.254 1.508-2.375 1.48-3.363-0.027-0.824-0.453-1.106-1.277-0.84-1.043 0.508-1.762 0.801-2.16 0.883-0.641 0.133-1.082 0.863-1.321 2.199-0.269 1.387 0.051 2.254 0.957 2.598z" inkscape:connector-curvature="0"/>
      <path id="path66" style="fill-rule:evenodd;fill:#1f2433" d="m182.22 15.925c0.64 0.316 1.359 0.16 2.16-0.481 0.695-0.535 1.176-1.148 1.441-1.843 0.188-0.504-0.027-0.746-0.64-0.719-0.508 0.027-1.121 0.203-1.84 0.519-0.774 0.321-1.32 0.696-1.641 1.122-0.426 0.562-0.254 1.027 0.52 1.402z" inkscape:connector-curvature="0"/>
      <path id="path68" style="fill-rule:evenodd;fill:#1f2433" d="m151.9 19.644c1.043 0 1.668-0.625 1.883-1.879 0.184-1.227-0.226-1.895-1.242-2-1.094-0.11-1.824 0.519-2.199 1.879-0.375 1.359 0.148 2.027 1.558 2z" inkscape:connector-curvature="0"/>
      <path id="path70" style="fill-rule:evenodd;fill:#1f2433" d="m306.86 13.444c1.016 0 1.629-0.628 1.84-1.882 0.215-1.227-0.187-1.891-1.199-2-1.094-0.106-1.828 0.523-2.199 1.882-0.375 1.36 0.144 2.028 1.558 2z" inkscape:connector-curvature="0"/>
      <path id="path72" style="fill-rule:evenodd;fill:#1f2433" d="m50.102 26.722c1.25 0.429 2.226 0.496 2.918 0.203 1.546-0.668 3.199-2 4.96-4 1.946-2.242 3-4.297 3.161-6.16 0.16-1.547-0.668-2.43-2.481-2.641-2.508-0.293-4.027-0.68-4.558-1.16-1.043-0.906-2.657-0.52-4.84 1.16-1.574 1.172-2.907 2.481-4 3.918-1.684 2.242-1.203 4.481 1.437 6.719 1.039 0.883 2.176 1.535 3.403 1.961z" inkscape:connector-curvature="0"/>
      <path id="path74" style="fill-rule:evenodd;fill:#1f2433" d="m37.379 20.444c-0.211 0.692 0.375 1.598 1.762 2.719 1.386 1.149 2.652 1.707 3.8 1.68 0.934-0.027 1.227-0.547 0.879-1.559-0.187-0.535-0.535-1.359-1.039-2.48-0.16-0.774-1-1.293-2.519-1.559-1.547-0.269-2.508 0.133-2.883 1.199z" inkscape:connector-curvature="0"/>
      <path id="path76" style="fill-rule:evenodd;fill:#1f2433" d="m66.262 54.683c2.558 0.8 5.293 0.961 8.199 0.48 3.227-0.535 5.625-1.238 7.199-2.121 1.785-0.984 3.078-2.453 3.879-4.398 0.934-2.348 1.613-5.149 2.039-8.399 0.481-3.762 0.375-6.867-0.316-9.32-0.563-2.109-2.227-3.641-5-4.602-1.574-0.48-2.774-0.84-3.602-1.078-1.441-0.453-2.586-0.933-3.441-1.441-1.52-0.934-3.172-1.375-4.957-1.321-2.055 0.055-3.59-0.121-4.602-0.519-1.519-0.613-3.348 0.027-5.48 1.922-2.16 2.344-3.602 3.863-4.321 4.558-2 2-2.16 6.012-0.48 12.039 1.519 5.415 3.215 9.028 5.082 10.84 1.574 1.547 3.504 2.668 5.801 3.36z" inkscape:connector-curvature="0"/>
      <path id="path78" style="fill-rule:evenodd;fill:#1f2433" d="m66.102 18.483c1.199 1.118 2.492 1.786 3.878 2 0.508 0.079 2.774 0.586 6.801 1.52 3.598 0.824 6.25 1.32 7.957 1.48 1.84 0.161 2.524-0.894 2.043-3.16-0.293-1.308-1-3.468-2.121-6.48-0.508-1.707-1.812-2.641-3.922-2.801-0.449-0.051-2.679 0.109-6.679 0.481-2.825 0.242-4.879 0.585-6.161 1.039-1.757 0.617-2.824 1.617-3.199 3-0.211 0.828 0.254 1.8 1.403 2.921z" inkscape:connector-curvature="0"/>
      <path id="path80" style="fill-rule:evenodd;fill:#1f2433" d="m90.738 35.362c-0.316 2.426 0.629 5.215 2.84 8.36 2.32 3.336 4.774 5.082 7.363 5.242 2.934 0.187 5.918-0.375 8.957-1.68 3.364-1.441 5.602-3.375 6.723-5.801 0.957-2.054 0.52-4.054-1.32-6-1.149-1.093-2.016-1.921-2.602-2.48-1.094-1.039-1.879-1.988-2.359-2.84-1.094-1.894-2.133-3.215-3.121-3.961-0.641-0.508-1.531-0.906-2.68-1.199-0.719-0.187-1.973-0.094-3.758 0.281-3.519 0.692-5.414 1.067-5.679 1.117-1.895 0.27-3.067 1.11-3.524 2.52-0.293 2.348-0.57 4.496-0.84 6.441z" inkscape:connector-curvature="0"/>
      <path id="path82" style="fill-rule:evenodd;fill:#1f2433" d="m98.82 22.562c0.985-0.559 1.813-1.411 2.481-2.559 0.613-0.984 0.187-1.68-1.281-2.078-2.106-0.402-3.68-0.801-4.719-1.203-1.68-0.664-3.133-0.785-4.36-0.36-1.336 0.481-1.906 1.469-1.722 2.961 0.187 1.442 0.961 2.614 2.32 3.52 1.336 0.879 2.656 1.16 3.961 0.84 1.465-0.348 2.574-0.719 3.32-1.121z" inkscape:connector-curvature="0"/>
      <path id="path84" style="fill-rule:evenodd;fill:#1f2433" d="m107.38 17.401c-0.32 0.243-0.387 1.071-0.199 2.485l0.359 2.078 2-0.199c1.496-0.242 2.602-0.586 3.32-1.039 0.696-0.453 0.746-1.016 0.161-1.684-0.961-1.144-1.481-1.824-1.559-2.039-0.242-0.691-0.856-0.934-1.84-0.719-0.746 0.188-1.496 0.559-2.242 1.117z" inkscape:connector-curvature="0"/>
      <path id="path86" style="fill-rule:evenodd;fill:#1f2433" d="m87.461 13.245 1.039 0.238c0.773 0.106 1.375-0.011 1.801-0.359 0.586-0.453 0.359-0.734-0.68-0.84-0.988-0.105-1.707 0.211-2.16 0.961z" inkscape:connector-curvature="0"/>
      <path id="path88" style="fill-rule:evenodd;fill:#1f2433" d="m49.781 30.523c-0.32 0.718-0.121 1.562 0.598 2.519 0.613 0.801 1.309 1.359 2.082 1.68 0.586 0.215 0.851-0.051 0.801-0.797-0.055-0.563-0.254-1.281-0.602-2.16-0.371-0.91-0.812-1.547-1.32-1.922-0.641-0.481-1.16-0.254-1.559 0.68z" inkscape:connector-curvature="0"/>
      <path id="path90" style="fill-rule:evenodd;fill:#1f2433" d="m122.9 29.444 0.801 1.481c0.668 0.984 1.254 1.519 1.762 1.598 0.531 0.082 0.773-0.227 0.719-0.918-0.028-0.403-0.227-1.227-0.602-2.481-0.238-0.879-0.719-1.199-1.437-0.961-0.664 0.238-1.082 0.668-1.243 1.281z" inkscape:connector-curvature="0"/>
      <path id="path92" style="fill-rule:evenodd;fill:#1f2433" d="m228.42 23.722c0.719-0.344 1.051-0.946 1-1.797-0.055-0.508-0.188-1.32-0.402-2.442-0.028-0.8-0.653-1.292-1.879-1.48-1.176-0.187-1.961 0.027-2.36 0.641-0.402 0.613-0.109 1.691 0.879 3.238 1.012 1.601 1.934 2.215 2.762 1.84z" inkscape:connector-curvature="0"/>
      <path id="path94" style="fill-rule:evenodd;fill:#1f2433" d="m162.06 30.042c0.054 2.137 1.308 4.414 3.761 6.844 2.559 2.531 5.028 3.68 7.399 3.437 2.695-0.265 5.336-1.187 7.922-2.757 2.824-1.762 4.586-3.79 5.281-6.083 0.586-1.917-0.094-3.597-2.043-5.039-1.199-0.773-2.106-1.359-2.719-1.761-1.148-0.746-2-1.453-2.558-2.117-1.254-1.469-2.387-2.469-3.403-3-0.664-0.321-1.531-0.52-2.597-0.602-0.696-0.051-1.829 0.199-3.403 0.762-3.144 1.172-4.801 1.785-4.961 1.84-1.703 0.531-2.652 1.453-2.84 2.757 0.082 2.078 0.137 3.989 0.161 5.719z" inkscape:connector-curvature="0"/>
      <path id="path96" style="fill-rule:evenodd;fill:#1f2433" d="m205.54 37.765c-0.078 0.558 0.027 1.277 0.32 2.16 0.348 1.012 1.934 1.012 4.762 0 2.824-1.016 4.317-2.094 4.477-3.242 0.297-1.918-1.586-2.641-5.637-2.16-2.457 0.293-3.762 1.375-3.922 3.242z" inkscape:connector-curvature="0"/>
      <path id="path98" style="fill-rule:evenodd;fill:#1f2433" d="m196.98 48.644c2-0.508 3.641-1.707 4.918-3.602 1.282-1.945 1.868-4.144 1.762-6.598-0.105-2.027-0.719-3.121-1.84-3.281-1.414 0.133-2.48 0.039-3.199-0.281-0.828-0.399-1.816-0.547-2.961-0.438-2.348 0.184-3.933 0.278-4.762 0.278-1.812-0.024-3.093 0.414-3.839 1.32-1.625 2.055-2.532 3.16-2.719 3.32-0.801 0.641-2.641 1.719-5.52 3.239-2.082 1.093-3.066 1.933-2.961 2.523 0.161 0.774 1.243 1.774 3.243 3 1.972 1.199 3.718 1.957 5.238 2.277 2.265 0.481 6.48-0.105 12.64-1.757z" inkscape:connector-curvature="0"/>
      <path id="path100" style="fill-rule:evenodd;fill:#1f2433" d="m196.5 55.964c1.172-1.469 1.293-2.574 0.359-3.32-0.824-0.719-2.078-0.907-3.757-0.559-2.161 0.344-3.747 0.625-4.762 0.84-1.735 0.371-2.801 0.851-3.199 1.437-0.508 0.746-0.36 2.121 0.441 4.121 0.906 2.215 2.211 3.36 3.918 3.442 1.629 0.078 2.961-0.496 4-1.723 0.641-0.746 1.641-2.16 3-4.238z" inkscape:connector-curvature="0"/>
      <path id="path102" style="fill-rule:evenodd;fill:#1f2433" d="m191.5 19.202c1.734 1.496 3.934 2.496 6.602 3 3.253 0.614 6.867 0.508 10.839-0.316 3.918-0.828 7.266-2.16 10.039-4 2.399-1.602 3.442-3.496 3.122-5.684-0.293-1.918-1.536-3.879-3.723-5.879-1.973-1.812-4.317-3.332-7.039-4.558-2.668-1.227-4.918-1.817-6.758-1.762-0.535 0.027-1.652 0.148-3.359 0.359-1.364 0.161-2.481 0.215-3.364 0.161l-0.797-0.079c-1.308-0.16-2.066-0.242-2.281-0.242-0.828 0-1.574 0.215-2.242 0.641-2.133 1.281-3.945 3.187-5.437 5.719-1.79 3.015-1.907 5.453-0.36 7.32 2.399 2.883 3.985 4.656 4.758 5.32z" inkscape:connector-curvature="0"/>
      <path id="path104" style="fill-rule:evenodd;fill:#1f2433" d="m180.82 21.523 1 1.281c0.774 0.851 1.414 1.281 1.918 1.281 0.535 0 0.723-0.336 0.563-1-0.082-0.375-0.403-1.133-0.961-2.281-0.375-0.801-0.895-1.028-1.559-0.68-0.586 0.348-0.91 0.813-0.961 1.399z" inkscape:connector-curvature="0"/>
      <path id="path106" style="fill-rule:evenodd;fill:#1f2433" d="m53.262 55.523c-1.867-1.067-3.309-1.961-4.321-2.68-0.722-0.508-1.734-1.293-3.043-2.36-0.824-0.695-1.757-1.308-2.796-1.839-1.149-0.614-2.43-0.575-3.84 0.117-1.657 1.094-2.934 1.922-3.84 2.48-1.469 0.91-2.457 2.403-2.961 4.481-0.32 1.308-0.426 2.414-0.32 3.32 0.054 0.242 0.547 0.652 1.48 1.242 1.598 1.012 2.613 1.664 3.039 1.961 1.735 1.223 4.668 1.117 8.801-0.32 2.531-0.906 5.238-2.309 8.117-4.203 0.961-0.637 0.856-1.371-0.316-2.199z" inkscape:connector-curvature="0"/>
      <path id="path108" style="fill-rule:evenodd;fill:#1f2433" d="m31.141 46.401c-0.668 2.028-0.508 2.883 0.48 2.563 3.918-1.227 7.238-2.52 9.957-3.879 1.363-0.695 2.11-2.043 2.242-4.043 0.055-0.773-0.054-2.305-0.32-4.598-0.078-0.882-0.492-1.269-1.238-1.16-1.203 0.133-2.094 0.039-2.684-0.281-0.906-0.508-2.023 0.148-3.359 1.961-0.239 0.32-1.184 1.852-2.84 4.598-0.934 1.523-1.68 3.136-2.238 4.839z" inkscape:connector-curvature="0"/>
      <path id="path110" style="fill-rule:evenodd;fill:#1f2433" d="m23.34 55.401c-0.801 1.762-0.266 2.934 1.601 3.524 1.465 0.453 2.692 0.519 3.68 0.199 0.426-0.133 0.879-0.586 1.359-1.359 0.454-0.746 0.719-1.43 0.801-2.043 0.371-2.321 0.024-3.625-1.043-3.918-0.879-0.242-2-0.028-3.359 0.64-1.465 0.747-2.481 1.735-3.039 2.957z" inkscape:connector-curvature="0"/>
      <path id="path112" style="fill-rule:evenodd;fill:#1f2433" d="m16.898 52.562c-0.453 0.773 0.028 1.269 1.442 1.48 0.453 0.082 0.949 0.016 1.48-0.199 0.375-0.16 1.282-0.574 2.719-1.238 1.309-0.614 1.961-1.176 1.961-1.68 0.027-0.453-0.508-0.707-1.602-0.762-2.933-0.16-4.933 0.641-6 2.399z" inkscape:connector-curvature="0"/>
      <path id="path114" style="fill-rule:evenodd;fill:#1f2433" d="m50.699 62.925c-0.16 0.398 0.414 0.625 1.723 0.68 1.305 0.05 2.25-0.082 2.84-0.403 0.664-0.398 1.117-0.867 1.359-1.398 0.266-0.641 0.094-1.106-0.519-1.403-0.668-0.293-1.657-0.132-2.961 0.481-1.309 0.613-2.121 1.297-2.442 2.043z" inkscape:connector-curvature="0"/>
      <path id="path116" style="fill-rule:evenodd;fill:#1f2433" d="m141.94 31.444c0.184 1.758 0.907 3.372 2.161 4.84 1.011 1.172 2.171 2.106 3.476 2.801 1.363 0.691 2.895 1.316 4.602 1.879 2.082 0.691 3.492 0.922 4.242 0.68 0.637-0.215 0.773-1.067 0.398-2.559-0.586-2.293-0.879-3.68-0.879-4.16-0.027-1.227-0.468-2.469-1.32-3.719-0.641-1.015-1.641-2.16-3-3.441-2.16-2.051-4.402-2.481-6.723-1.282-2.21 1.145-3.199 2.801-2.957 4.961z" inkscape:connector-curvature="0"/>
      <path id="path118" style="fill-rule:evenodd;fill:#1f2433" d="m167.18 52.804c0.082 1.121 1.066 2.078 2.961 2.879 1.945 0.773 3.492 0.812 4.64 0.121 0.985-0.586 1-1.293 0.039-2.121-1.465-1.012-2.492-1.813-3.082-2.399-0.879-0.906-1.867-1.199-2.957-0.883-1.121 0.321-1.652 1.122-1.601 2.403z" inkscape:connector-curvature="0"/>
      <path id="path120" style="fill-rule:evenodd;fill:#1f2433" d="m144.06 57.765c0.32 1.703 1.136 3.293 2.441 4.758 1.332 1.496 2.652 2.226 3.961 2.199 1.144-0.028 2.105-0.426 2.879-1.199 0.105-0.133 0.933-1.211 2.48-3.239 0.985-1.281 1.227-2.426 0.719-3.441-0.398-0.801-1.305-1.559-2.719-2.281-1.093-0.532-2.16-1.012-3.199-1.438-0.32-0.133-1.855-0.734-4.601-1.801-1.868-0.718-2.825-0.332-2.879 1.16 0 0.293 0.304 2.055 0.918 5.282z" inkscape:connector-curvature="0"/>
      <path id="path122" style="fill-rule:evenodd;fill:#1f2433" d="m128.54 43.722c-0.691-0.957-1.574-1.531-2.641-1.719-1.093-0.215-2.039 0.055-2.839 0.801-1.2 1.066-0.879 3.359 0.961 6.879 0.402 0.773 1.132 1.16 2.199 1.16 0.773-0.027 1.679-0.254 2.722-0.68 0.774-0.32 1.094-1.199 0.957-2.64-0.105-1.411-0.558-2.68-1.359-3.801z" inkscape:connector-curvature="0"/>
      <path id="path124" style="fill-rule:evenodd;fill:#1f2433" d="m8.262 16.163c-0.668-0.961-1.535-1.535-2.602-1.719-1.121-0.214-2.082 0.051-2.879 0.801-1.148 1.067-0.828 3.36 0.957 6.879 0.723 1.387 2.364 1.559 4.922 0.52 0.774-0.348 1.106-1.243 1-2.68-0.105-1.414-0.574-2.68-1.398-3.801z" inkscape:connector-curvature="0"/>
      <path id="path126" style="fill-rule:evenodd;fill:#1f2433" d="m326.86 25.444c-1.148 1.039-0.824 3.332 0.961 6.879 0.399 0.774 1.133 1.16 2.2 1.16 0.773-0.027 1.679-0.253 2.718-0.679 0.774-0.321 1.094-1.199 0.961-2.641-0.105-1.414-0.558-2.68-1.359-3.801-0.668-0.961-1.535-1.531-2.602-1.718-1.117-0.215-2.078 0.054-2.879 0.8z" inkscape:connector-curvature="0"/>
      <path id="path128" style="fill-rule:evenodd;fill:#1f2433" d="m95.82 56.362c-0.453-0.48-1.16-0.238-2.121 0.723-1.011 1.012-1.531 2.184-1.558 3.52-0.028 1.304 0.226 2.105 0.757 2.398 0.375 0.215 1.028 0.16 1.961-0.16 0.801-0.32 1.336-1.281 1.602-2.879 0.266-1.652 0.051-2.856-0.641-3.602z" inkscape:connector-curvature="0"/>
      <path id="path130" style="fill-rule:evenodd;fill:#1f2433" d="m14.738 27.042c0.563 0.695 2.59 2.641 6.082 5.844 1.973 1.785 3.453 2.183 4.442 1.199 0.238-0.242 0.812-1.016 1.718-2.32 0.934-1.309 1.852-2.426 2.758-3.36 2.215-2.187 2.789-5.601 1.723-10.242-0.906-3.945-2.563-7.453-4.961-10.519-2.105-2.692-3.934-3-5.48-0.918-2.426 3.304-3.985 5.492-4.68 6.558-2.215 3.414-3.442 6.055-3.68 7.918-0.265 1.922 0.426 3.867 2.078 5.84z" inkscape:connector-curvature="0"/>
      <path id="path132" style="fill-rule:evenodd;fill:#1f2433" d="m320.02 21.284c1.226-1.066 1.718-2.148 1.48-3.242-0.16-0.719-0.746-1.625-1.758-2.719-1.015-1.172-1.844-2.082-2.48-2.718-1.149-1.122-2.551-2.204-4.203-3.243-1.571-0.984-2.348-1.066-2.317-0.238 0.024 1.918 0.039 2.891 0.039 2.918-0.773 1.199-1.347 2.176-1.719 2.922-0.667 1.359-0.8 2.664-0.402 3.918 0.586 1.734 2.281 2.867 5.082 3.402 2.746 0.532 4.836 0.199 6.278-1z" inkscape:connector-curvature="0"/>
      <path id="path134" style="fill-rule:evenodd;fill:#1f2433" d="m323.66 45.401c-1.148-0.984-1.918-0.863-2.32 0.364-0.371 1.199-0.211 2.293 0.48 3.277 0.508 0.723 1.227 0.52 2.16-0.598 0.934-1.093 0.825-2.109-0.32-3.043z" inkscape:connector-curvature="0"/>
      <path id="path136" style="fill-rule:evenodd;fill:#1f2433" d="m311.86 53.042c-0.453-0.48-1.16-0.238-2.117 0.723-1.015 1.011-1.535 2.172-1.562 3.48-0.024 1.305 0.226 2.106 0.761 2.399 0.371 0.238 1.012 0.199 1.918-0.121 0.801-0.321 1.336-1.278 1.602-2.879 0.293-1.653 0.094-2.856-0.602-3.602z" inkscape:connector-curvature="0"/>
      <path id="path138" style="fill-rule:evenodd;fill:#1f2433" d="m223.38 47.523c-2.426 1.359-4.371 3-5.84 4.921-1.598 2.133-1.734 3.586-0.398 4.36 1.625 0.961 3.746 1.758 6.359 2.398 2.984 0.774 5.668 1.055 8.039 0.84 2.133-0.16 4.789 0.203 7.961 1.082 1.758 0.481 4.359 1.266 7.801 2.359 2.265 0.614 4.812-0.386 7.64-3 2.532-2.347 4.079-4.625 4.637-6.839 1.387-5.442 0.16-9.629-3.68-12.559-3.597-2.773-8.293-3.684-14.078-2.723-4.508 0.75-8.402 2.188-11.679 4.321-3.039 2.402-5.293 4.015-6.762 4.84z" inkscape:connector-curvature="0"/>
      <path id="path140" style="fill-rule:evenodd;fill:#1f2433" d="m284.66 41.722c1.492 0.535 2.52 0.601 3.082 0.203 0.664-0.481 1.106-1.684 1.317-3.602 0.242-2.054 0.07-3.851-0.52-5.398-0.504-1.336-1.824-2.535-3.957-3.602-2.402-0.988-4-1.695-4.801-2.121-0.851-0.48-1.215 0.067-1.082 1.641 0.188 2.055 0.11 3.293-0.238 3.719-0.563 0.668-0.414 1.91 0.437 3.722 0.774 1.625 1.629 2.84 2.563 3.641 0.801 0.691 1.867 1.293 3.199 1.797z" inkscape:connector-curvature="0"/>
      <path id="path142" style="fill-rule:evenodd;fill:#1f2433" d="m284.74 50.605c0.801 0.558 1.629 0.746 2.481 0.558 0.91-0.16 1.562-0.668 1.961-1.519 0.613-1.149-0.254-2.852-2.602-5.121-0.504-0.481-1.172-0.559-2-0.239-0.613 0.266-1.238 0.719-1.879 1.36-0.508 0.48-0.519 1.265-0.039 2.359 0.453 1.066 1.145 1.934 2.078 2.602z" inkscape:connector-curvature="0"/>
      <path id="path144" style="fill-rule:evenodd;fill:#1f2433" d="m291.06 26.245c0.32 1.707 0.414 3.184 0.281 4.438-0.184 1.496-0.348 3.562-0.481 6.203-0.105 1.68-0.347 3.305-0.718 4.879-0.399 1.734 0 3.398 1.199 5 0.719 0.984 2.105 2.691 4.16 5.121 0.879 1.305 2.602 2.597 5.16 3.879 2.16 1.093 3.508 1.625 4.039 1.597 0.348-0.023 1.414-1.664 3.199-4.918 1.922-3.492 3.27-6.48 4.043-8.961 0.774-2.425 0.731-4.894-0.121-7.398-0.425-1.254-1.746-3.883-3.961-7.883-1.625-2.957-3.851-5.304-6.679-7.039-2.668-1.625-5.465-2.48-8.399-2.558-2.187-0.055-3.039 1.199-2.558 3.757 0.371 1.653 0.648 2.95 0.836 3.883z" inkscape:connector-curvature="0"/>
      <path id="path146" style="fill-rule:evenodd;fill:#1f2433" d="m300.86 16.964c0.481-0.16 0.336-0.719-0.437-1.68-0.777-0.933-1.43-1.215-1.961-0.84-0.613 0.399-0.602 1 0.039 1.797 0.613 0.774 1.398 1.016 2.359 0.723z" inkscape:connector-curvature="0"/>
      <path id="path148" style="fill-rule:evenodd;fill:#1f2433" d="m311.7 31.964c0.453 0.719 1.321 1.359 2.602 1.918 1.332 0.613 2.066 0.562 2.199-0.16 0.082-0.531 0.266-1.653 0.559-3.36 0.136-1.546-0.09-2.613-0.68-3.199-0.586-0.64-1.281-0.984-2.078-1.039-0.43-0.027-1.094 0.067-2 0.277-0.696 0.137-1.149 0.778-1.36 1.922-0.242 1.227 0.012 2.442 0.758 3.641z" inkscape:connector-curvature="0"/>
      <path id="path150" style="fill-rule:evenodd;fill:#1f2433" d="m283.26 26.163c0.851 0.266 1.879 0.106 3.078-0.48 1.199-0.559 1.855-1.188 1.961-1.879 0.187-1.067-0.895-3.906-3.242-8.52-0.719-1.386-1.813-1.293-3.278 0.278-1.574 2.136-2.64 3.496-3.203 4.082-0.851 0.879-0.773 2.027 0.242 3.441 1.012 1.414 2.492 2.438 4.442 3.078z" inkscape:connector-curvature="0"/>
      <path id="path152" style="fill-rule:evenodd;fill:#1f2433" d="m280.18 53.644c-1.758-0.856-3.266-1.602-4.52-2.243-2-1.011-3.574-1.546-4.719-1.597-1.359-0.082-2.64 0.426-3.839 1.519-0.454 0.426 0.093 1.371 1.64 2.84 0.852 0.774 2.078 1.856 3.68 3.238 0.664 0.668 2.293 1.309 4.879 1.922 1.469 0.371 3.707 0.852 6.719 1.442 2.187 0.48 3.976 0.504 5.359 0.078 1.469-0.426 1.562-1.199 0.281-2.32-0.984-0.879-2.426-1.575-4.32-2.079-1.68-0.453-2.625-0.839-2.84-1.16-0.32-0.48-1.094-1.027-2.32-1.64z" inkscape:connector-curvature="0"/>
      <path id="path154" style="fill-rule:evenodd;fill:#1f2433" d="m86.578 102.08c1.309-0.137 2.934-1.348 4.883-3.641 1.918-2.214 2.867-3.855 2.84-4.921-0.028-1.145-0.613-2.504-1.762-4.079-1.332-1.761-2.851-2.906-4.559-3.441-1.894-0.586-4.96-0.734-9.199-0.441-4.269 0.32-7.293 0.921-9.082 1.8-1.414 0.696-1.558 1.95-0.437 3.762 1.972 3.199 3.093 5.305 3.359 6.32 0.613 2.293 2.52 3.786 5.719 4.481 2.32 0.476 5.066 0.531 8.238 0.16z" inkscape:connector-curvature="0"/>
      <path id="path156" style="fill-rule:evenodd;fill:#1f2433" d="m79.859 74.163c1.762-0.16 2.961-1.574 3.602-4.238 0.641-2.613 0.359-4.363-0.84-5.242-1.949-1.465-5.574-1.719-10.883-0.758-1.918 0.344-2.758 1.144-2.519 2.398 0.668 1.653 0.961 2.934 0.883 3.84-0.082 1.305 0.945 2.36 3.078 3.16 2 0.774 4.226 1.055 6.679 0.84z" inkscape:connector-curvature="0"/>
      <path id="path158" style="fill-rule:evenodd;fill:#1f2433" d="m92.301 77.362c0.933-0.425 1.011-1.734 0.238-3.918-0.801-2.265-2.094-3.906-3.879-4.921-1.519-0.879-2.305-0.879-2.359 0 0.187 1.253 0.16 2.093-0.082 2.519-0.453 0.774 0.093 2.16 1.64 4.16 1.602 2.055 3.082 2.774 4.442 2.16z" inkscape:connector-curvature="0"/>
    </g>
  </g>
<metadata><rdf:RDF><cc:Work><dc:format>image/svg+xml</dc:format><dc:type rdf:resource="http://purl.org/dc/dcmitype/StillImage"/><cc:license rdf:resource="http://creativecommons.org/licenses/publicdomain/"/><dc:publisher><cc:Agent rdf:about="http://openclipart.org/"><dc:title>Openclipart</dc:title></cc:Agent></dc:publisher></cc:Work><cc:License rdf:about="http://creativecommons.org/licenses/publicdomain/"><cc:permits rdf:resource="http://creativecommons.org/ns#Reproduction"/><cc:permits rdf:resource="http://creativecommons.org/ns#Distribution"/><cc:permits rdf:resource="http://creativecommons.org/ns#DerivativeWorks"/></cc:License></rdf:RDF></metadata></svg>
